<svg xmlns="http://www.w3.org/2000/svg" viewBox="0 0 200 84" width="200" height="84">
<rect width="200" height="84" fill="#0F0F11"/>
<rect x="1" y="1" width="198" height="82" fill="none" stroke="#2B2B30" stroke-width="2"/>
<rect x="16" y="12" width="8" height="2" fill="#6E6E73"/><rect x="14" y="14" width="2" height="2" fill="#6E6E73"/><rect x="14" y="16" width="2" height="2" fill="#6E6E73"/><rect x="14" y="18" width="2" height="2" fill="#6E6E73"/><rect x="14" y="20" width="2" height="2" fill="#6E6E73"/><rect x="14" y="22" width="2" height="2" fill="#6E6E73"/><rect x="16" y="24" width="8" height="2" fill="#6E6E73"/><rect x="28" y="12" width="6" height="2" fill="#6E6E73"/><rect x="26" y="14" width="2" height="2" fill="#6E6E73"/><rect x="34" y="14" width="2" height="2" fill="#6E6E73"/><rect x="26" y="16" width="2" height="2" fill="#6E6E73"/><rect x="34" y="16" width="2" height="2" fill="#6E6E73"/><rect x="26" y="18" width="2" height="2" fill="#6E6E73"/><rect x="34" y="18" width="2" height="2" fill="#6E6E73"/><rect x="26" y="20" width="2" height="2" fill="#6E6E73"/><rect x="34" y="20" width="2" height="2" fill="#6E6E73"/><rect x="26" y="22" width="2" height="2" fill="#6E6E73"/><rect x="34" y="22" width="2" height="2" fill="#6E6E73"/><rect x="28" y="24" width="6" height="2" fill="#6E6E73"/><rect x="38" y="12" width="2" height="2" fill="#6E6E73"/><rect x="46" y="12" width="2" height="2" fill="#6E6E73"/><rect x="38" y="14" width="4" height="2" fill="#6E6E73"/><rect x="46" y="14" width="2" height="2" fill="#6E6E73"/><rect x="38" y="16" width="4" height="2" fill="#6E6E73"/><rect x="46" y="16" width="2" height="2" fill="#6E6E73"/><rect x="38" y="18" width="2" height="2" fill="#6E6E73"/><rect x="42" y="18" width="2" height="2" fill="#6E6E73"/><rect x="46" y="18" width="2" height="2" fill="#6E6E73"/><rect x="38" y="20" width="2" height="2" fill="#6E6E73"/><rect x="44" y="20" width="4" height="2" fill="#6E6E73"/><rect x="38" y="22" width="2" height="2" fill="#6E6E73"/><rect x="44" y="22" width="4" height="2" fill="#6E6E73"/><rect x="38" y="24" width="2" height="2" fill="#6E6E73"/><rect x="46" y="24" width="2" height="2" fill="#6E6E73"/><rect x="50" y="12" width="10" height="2" fill="#6E6E73"/><rect x="54" y="14" width="2" height="2" fill="#6E6E73"/><rect x="54" y="16" width="2" height="2" fill="#6E6E73"/><rect x="54" y="18" width="2" height="2" fill="#6E6E73"/><rect x="54" y="20" width="2" height="2" fill="#6E6E73"/><rect x="54" y="22" width="2" height="2" fill="#6E6E73"/><rect x="54" y="24" width="2" height="2" fill="#6E6E73"/><rect x="64" y="12" width="6" height="2" fill="#6E6E73"/><rect x="66" y="14" width="2" height="2" fill="#6E6E73"/><rect x="66" y="16" width="2" height="2" fill="#6E6E73"/><rect x="66" y="18" width="2" height="2" fill="#6E6E73"/><rect x="66" y="20" width="2" height="2" fill="#6E6E73"/><rect x="66" y="22" width="2" height="2" fill="#6E6E73"/><rect x="64" y="24" width="6" height="2" fill="#6E6E73"/><rect x="74" y="12" width="2" height="2" fill="#6E6E73"/><rect x="82" y="12" width="2" height="2" fill="#6E6E73"/><rect x="74" y="14" width="4" height="2" fill="#6E6E73"/><rect x="82" y="14" width="2" height="2" fill="#6E6E73"/><rect x="74" y="16" width="4" height="2" fill="#6E6E73"/><rect x="82" y="16" width="2" height="2" fill="#6E6E73"/><rect x="74" y="18" width="2" height="2" fill="#6E6E73"/><rect x="78" y="18" width="2" height="2" fill="#6E6E73"/><rect x="82" y="18" width="2" height="2" fill="#6E6E73"/><rect x="74" y="20" width="2" height="2" fill="#6E6E73"/><rect x="80" y="20" width="4" height="2" fill="#6E6E73"/><rect x="74" y="22" width="2" height="2" fill="#6E6E73"/><rect x="80" y="22" width="4" height="2" fill="#6E6E73"/><rect x="74" y="24" width="2" height="2" fill="#6E6E73"/><rect x="82" y="24" width="2" height="2" fill="#6E6E73"/><rect x="86" y="12" width="2" height="2" fill="#6E6E73"/><rect x="94" y="12" width="2" height="2" fill="#6E6E73"/><rect x="86" y="14" width="2" height="2" fill="#6E6E73"/><rect x="94" y="14" width="2" height="2" fill="#6E6E73"/><rect x="86" y="16" width="2" height="2" fill="#6E6E73"/><rect x="94" y="16" width="2" height="2" fill="#6E6E73"/><rect x="86" y="18" width="2" height="2" fill="#6E6E73"/><rect x="94" y="18" width="2" height="2" fill="#6E6E73"/><rect x="86" y="20" width="2" height="2" fill="#6E6E73"/><rect x="94" y="20" width="2" height="2" fill="#6E6E73"/><rect x="86" y="22" width="2" height="2" fill="#6E6E73"/><rect x="94" y="22" width="2" height="2" fill="#6E6E73"/><rect x="88" y="24" width="6" height="2" fill="#6E6E73"/><rect x="98" y="12" width="10" height="2" fill="#6E6E73"/><rect x="98" y="14" width="2" height="2" fill="#6E6E73"/><rect x="98" y="16" width="2" height="2" fill="#6E6E73"/><rect x="98" y="18" width="8" height="2" fill="#6E6E73"/><rect x="98" y="20" width="2" height="2" fill="#6E6E73"/><rect x="98" y="22" width="2" height="2" fill="#6E6E73"/><rect x="98" y="24" width="10" height="2" fill="#6E6E73"/><rect x="112" y="12" width="6" height="2" fill="#6E6E73"/><rect x="110" y="14" width="2" height="2" fill="#6E6E73"/><rect x="118" y="14" width="2" height="2" fill="#6E6E73"/><rect x="118" y="16" width="2" height="2" fill="#6E6E73"/><rect x="114" y="18" width="4" height="2" fill="#6E6E73"/><rect x="114" y="20" width="2" height="2" fill="#6E6E73"/><rect x="114" y="24" width="2" height="2" fill="#6E6E73"/>
<g opacity="1"><rect x="91" y="32" width="18" height="6" fill="#F2C230"/><rect x="85" y="38" width="6" height="6" fill="#F2C230"/><rect x="109" y="38" width="6" height="6" fill="#F2C230"/><rect x="85" y="44" width="6" height="6" fill="#F2C230"/><rect x="109" y="44" width="6" height="6" fill="#F2C230"/><rect x="91" y="50" width="24" height="6" fill="#F2C230"/><rect x="109" y="56" width="6" height="6" fill="#F2C230"/><rect x="109" y="62" width="6" height="6" fill="#F2C230"/><rect x="91" y="68" width="18" height="6" fill="#F2C230"/><animate attributeName="opacity" values="1;0;0;0;0;0;0;0;0;0" keyTimes="0.0;0.1;0.2;0.3;0.4;0.5;0.6;0.7;0.8;0.9" dur="10s" calcMode="discrete" repeatCount="indefinite"/></g>
<g opacity="0"><rect x="91" y="32" width="18" height="6" fill="#F2C230"/><rect x="85" y="38" width="6" height="6" fill="#F2C230"/><rect x="109" y="38" width="6" height="6" fill="#F2C230"/><rect x="85" y="44" width="6" height="6" fill="#F2C230"/><rect x="109" y="44" width="6" height="6" fill="#F2C230"/><rect x="91" y="50" width="18" height="6" fill="#F2C230"/><rect x="85" y="56" width="6" height="6" fill="#F2C230"/><rect x="109" y="56" width="6" height="6" fill="#F2C230"/><rect x="85" y="62" width="6" height="6" fill="#F2C230"/><rect x="109" y="62" width="6" height="6" fill="#F2C230"/><rect x="91" y="68" width="18" height="6" fill="#F2C230"/><animate attributeName="opacity" values="0;1;0;0;0;0;0;0;0;0" keyTimes="0.0;0.1;0.2;0.3;0.4;0.5;0.6;0.7;0.8;0.9" dur="10s" calcMode="discrete" repeatCount="indefinite"/></g>
<g opacity="0"><rect x="85" y="32" width="30" height="6" fill="#F2C230"/><rect x="109" y="38" width="6" height="6" fill="#F2C230"/><rect x="103" y="44" width="6" height="6" fill="#F2C230"/><rect x="97" y="50" width="6" height="6" fill="#F2C230"/><rect x="91" y="56" width="6" height="6" fill="#F2C230"/><rect x="91" y="62" width="6" height="6" fill="#F2C230"/><rect x="91" y="68" width="6" height="6" fill="#F2C230"/><animate attributeName="opacity" values="0;0;1;0;0;0;0;0;0;0" keyTimes="0.0;0.1;0.2;0.3;0.4;0.5;0.6;0.7;0.8;0.9" dur="10s" calcMode="discrete" repeatCount="indefinite"/></g>
<g opacity="0"><rect x="91" y="32" width="18" height="6" fill="#F2C230"/><rect x="85" y="38" width="6" height="6" fill="#F2C230"/><rect x="85" y="44" width="6" height="6" fill="#F2C230"/><rect x="85" y="50" width="24" height="6" fill="#F2C230"/><rect x="85" y="56" width="6" height="6" fill="#F2C230"/><rect x="109" y="56" width="6" height="6" fill="#F2C230"/><rect x="85" y="62" width="6" height="6" fill="#F2C230"/><rect x="109" y="62" width="6" height="6" fill="#F2C230"/><rect x="91" y="68" width="18" height="6" fill="#F2C230"/><animate attributeName="opacity" values="0;0;0;1;0;0;0;0;0;0" keyTimes="0.0;0.1;0.2;0.3;0.4;0.5;0.6;0.7;0.8;0.9" dur="10s" calcMode="discrete" repeatCount="indefinite"/></g>
<g opacity="0"><rect x="85" y="32" width="30" height="6" fill="#F2C230"/><rect x="85" y="38" width="6" height="6" fill="#F2C230"/><rect x="85" y="44" width="6" height="6" fill="#F2C230"/><rect x="85" y="50" width="24" height="6" fill="#F2C230"/><rect x="109" y="56" width="6" height="6" fill="#F2C230"/><rect x="109" y="62" width="6" height="6" fill="#F2C230"/><rect x="85" y="68" width="24" height="6" fill="#F2C230"/><animate attributeName="opacity" values="0;0;0;0;1;0;0;0;0;0" keyTimes="0.0;0.1;0.2;0.3;0.4;0.5;0.6;0.7;0.8;0.9" dur="10s" calcMode="discrete" repeatCount="indefinite"/></g>
<g opacity="0"><rect x="103" y="32" width="6" height="6" fill="#F2C230"/><rect x="97" y="38" width="12" height="6" fill="#F2C230"/><rect x="91" y="44" width="6" height="6" fill="#F2C230"/><rect x="103" y="44" width="6" height="6" fill="#F2C230"/><rect x="85" y="50" width="6" height="6" fill="#F2C230"/><rect x="103" y="50" width="6" height="6" fill="#F2C230"/><rect x="85" y="56" width="30" height="6" fill="#F2C230"/><rect x="103" y="62" width="6" height="6" fill="#F2C230"/><rect x="103" y="68" width="6" height="6" fill="#F2C230"/><animate attributeName="opacity" values="0;0;0;0;0;1;0;0;0;0" keyTimes="0.0;0.1;0.2;0.3;0.4;0.5;0.6;0.7;0.8;0.9" dur="10s" calcMode="discrete" repeatCount="indefinite"/></g>
<g opacity="0"><rect x="85" y="32" width="24" height="6" fill="#F2C230"/><rect x="109" y="38" width="6" height="6" fill="#F2C230"/><rect x="109" y="44" width="6" height="6" fill="#F2C230"/><rect x="91" y="50" width="18" height="6" fill="#F2C230"/><rect x="109" y="56" width="6" height="6" fill="#F2C230"/><rect x="109" y="62" width="6" height="6" fill="#F2C230"/><rect x="85" y="68" width="24" height="6" fill="#F2C230"/><animate attributeName="opacity" values="0;0;0;0;0;0;1;0;0;0" keyTimes="0.0;0.1;0.2;0.3;0.4;0.5;0.6;0.7;0.8;0.9" dur="10s" calcMode="discrete" repeatCount="indefinite"/></g>
<g opacity="0"><rect x="91" y="32" width="18" height="6" fill="#F2C230"/><rect x="85" y="38" width="6" height="6" fill="#F2C230"/><rect x="109" y="38" width="6" height="6" fill="#F2C230"/><rect x="109" y="44" width="6" height="6" fill="#F2C230"/><rect x="97" y="50" width="12" height="6" fill="#F2C230"/><rect x="91" y="56" width="6" height="6" fill="#F2C230"/><rect x="85" y="62" width="6" height="6" fill="#F2C230"/><rect x="85" y="68" width="30" height="6" fill="#F2C230"/><animate attributeName="opacity" values="0;0;0;0;0;0;0;1;0;0" keyTimes="0.0;0.1;0.2;0.3;0.4;0.5;0.6;0.7;0.8;0.9" dur="10s" calcMode="discrete" repeatCount="indefinite"/></g>
<g opacity="0"><rect x="97" y="32" width="6" height="6" fill="#F2C230"/><rect x="91" y="38" width="12" height="6" fill="#F2C230"/><rect x="97" y="44" width="6" height="6" fill="#F2C230"/><rect x="97" y="50" width="6" height="6" fill="#F2C230"/><rect x="97" y="56" width="6" height="6" fill="#F2C230"/><rect x="97" y="62" width="6" height="6" fill="#F2C230"/><rect x="91" y="68" width="18" height="6" fill="#F2C230"/><animate attributeName="opacity" values="0;0;0;0;0;0;0;0;1;0" keyTimes="0.0;0.1;0.2;0.3;0.4;0.5;0.6;0.7;0.8;0.9" dur="10s" calcMode="discrete" repeatCount="indefinite"/></g>
<g opacity="0"><rect x="91" y="32" width="18" height="6" fill="#F2C230"/><rect x="85" y="38" width="6" height="6" fill="#F2C230"/><rect x="109" y="38" width="6" height="6" fill="#F2C230"/><rect x="85" y="44" width="6" height="6" fill="#F2C230"/><rect x="103" y="44" width="12" height="6" fill="#F2C230"/><rect x="85" y="50" width="6" height="6" fill="#F2C230"/><rect x="97" y="50" width="6" height="6" fill="#F2C230"/><rect x="109" y="50" width="6" height="6" fill="#F2C230"/><rect x="85" y="56" width="12" height="6" fill="#F2C230"/><rect x="109" y="56" width="6" height="6" fill="#F2C230"/><rect x="85" y="62" width="6" height="6" fill="#F2C230"/><rect x="109" y="62" width="6" height="6" fill="#F2C230"/><rect x="91" y="68" width="18" height="6" fill="#F2C230"/><animate attributeName="opacity" values="0;0;0;0;0;0;0;0;0;1" keyTimes="0.0;0.1;0.2;0.3;0.4;0.5;0.6;0.7;0.8;0.9" dur="10s" calcMode="discrete" repeatCount="indefinite"/></g>
</svg>