<svg xmlns="http://www.w3.org/2000/svg" viewBox="0 0 320 64" width="320" height="64">
<rect width="320" height="64" fill="#0F0F11"/>
<rect x="1" y="1" width="318" height="62" fill="none" stroke="#2B2B30" stroke-width="2"/>
<rect x="6" y="6" width="12" height="3" fill="#E8502F"/>
<rect x="6" y="6" width="3" height="12" fill="#E8502F"/>
<rect x="302" y="6" width="12" height="3" fill="#E8502F"/>
<rect x="311" y="6" width="3" height="12" fill="#E8502F"/>
<rect x="6" y="55" width="12" height="3" fill="#E8502F"/>
<rect x="6" y="46" width="3" height="12" fill="#E8502F"/>
<rect x="302" y="55" width="12" height="3" fill="#E8502F"/>
<rect x="311" y="46" width="3" height="12" fill="#E8502F"/>
<rect x="29" y="22" width="12" height="3" fill="#F2EFE9"/><rect x="26" y="25" width="3" height="3" fill="#F2EFE9"/><rect x="26" y="28" width="3" height="3" fill="#F2EFE9"/><rect x="29" y="31" width="9" height="3" fill="#F2EFE9"/><rect x="38" y="34" width="3" height="3" fill="#F2EFE9"/><rect x="38" y="37" width="3" height="3" fill="#F2EFE9"/><rect x="26" y="40" width="12" height="3" fill="#F2EFE9"/><rect x="44" y="22" width="15" height="3" fill="#F2EFE9"/><rect x="44" y="25" width="3" height="3" fill="#F2EFE9"/><rect x="44" y="28" width="3" height="3" fill="#F2EFE9"/><rect x="44" y="31" width="12" height="3" fill="#F2EFE9"/><rect x="44" y="34" width="3" height="3" fill="#F2EFE9"/><rect x="44" y="37" width="3" height="3" fill="#F2EFE9"/><rect x="44" y="40" width="15" height="3" fill="#F2EFE9"/><rect x="62" y="22" width="3" height="3" fill="#F2EFE9"/><rect x="74" y="22" width="3" height="3" fill="#F2EFE9"/><rect x="62" y="25" width="6" height="3" fill="#F2EFE9"/><rect x="74" y="25" width="3" height="3" fill="#F2EFE9"/><rect x="62" y="28" width="6" height="3" fill="#F2EFE9"/><rect x="74" y="28" width="3" height="3" fill="#F2EFE9"/><rect x="62" y="31" width="3" height="3" fill="#F2EFE9"/><rect x="68" y="31" width="3" height="3" fill="#F2EFE9"/><rect x="74" y="31" width="3" height="3" fill="#F2EFE9"/><rect x="62" y="34" width="3" height="3" fill="#F2EFE9"/><rect x="71" y="34" width="6" height="3" fill="#F2EFE9"/><rect x="62" y="37" width="3" height="3" fill="#F2EFE9"/><rect x="71" y="37" width="6" height="3" fill="#F2EFE9"/><rect x="62" y="40" width="3" height="3" fill="#F2EFE9"/><rect x="74" y="40" width="3" height="3" fill="#F2EFE9"/><rect x="80" y="22" width="12" height="3" fill="#F2EFE9"/><rect x="80" y="25" width="3" height="3" fill="#F2EFE9"/><rect x="92" y="25" width="3" height="3" fill="#F2EFE9"/><rect x="80" y="28" width="3" height="3" fill="#F2EFE9"/><rect x="92" y="28" width="3" height="3" fill="#F2EFE9"/><rect x="80" y="31" width="3" height="3" fill="#F2EFE9"/><rect x="92" y="31" width="3" height="3" fill="#F2EFE9"/><rect x="80" y="34" width="3" height="3" fill="#F2EFE9"/><rect x="92" y="34" width="3" height="3" fill="#F2EFE9"/><rect x="80" y="37" width="3" height="3" fill="#F2EFE9"/><rect x="92" y="37" width="3" height="3" fill="#F2EFE9"/><rect x="80" y="40" width="12" height="3" fill="#F2EFE9"/><rect x="119" y="22" width="9" height="3" fill="#F2EFE9"/><rect x="116" y="25" width="3" height="3" fill="#F2EFE9"/><rect x="128" y="25" width="3" height="3" fill="#F2EFE9"/><rect x="116" y="28" width="3" height="3" fill="#F2EFE9"/><rect x="128" y="28" width="3" height="3" fill="#F2EFE9"/><rect x="116" y="31" width="15" height="3" fill="#F2EFE9"/><rect x="116" y="34" width="3" height="3" fill="#F2EFE9"/><rect x="128" y="34" width="3" height="3" fill="#F2EFE9"/><rect x="116" y="37" width="3" height="3" fill="#F2EFE9"/><rect x="128" y="37" width="3" height="3" fill="#F2EFE9"/><rect x="116" y="40" width="3" height="3" fill="#F2EFE9"/><rect x="128" y="40" width="3" height="3" fill="#F2EFE9"/><rect x="152" y="22" width="3" height="3" fill="#F2EFE9"/><rect x="164" y="22" width="3" height="3" fill="#F2EFE9"/><rect x="152" y="25" width="6" height="3" fill="#F2EFE9"/><rect x="161" y="25" width="6" height="3" fill="#F2EFE9"/><rect x="152" y="28" width="3" height="3" fill="#F2EFE9"/><rect x="158" y="28" width="3" height="3" fill="#F2EFE9"/><rect x="164" y="28" width="3" height="3" fill="#F2EFE9"/><rect x="152" y="31" width="3" height="3" fill="#F2EFE9"/><rect x="158" y="31" width="3" height="3" fill="#F2EFE9"/><rect x="164" y="31" width="3" height="3" fill="#F2EFE9"/><rect x="152" y="34" width="3" height="3" fill="#F2EFE9"/><rect x="164" y="34" width="3" height="3" fill="#F2EFE9"/><rect x="152" y="37" width="3" height="3" fill="#F2EFE9"/><rect x="164" y="37" width="3" height="3" fill="#F2EFE9"/><rect x="152" y="40" width="3" height="3" fill="#F2EFE9"/><rect x="164" y="40" width="3" height="3" fill="#F2EFE9"/><rect x="170" y="22" width="15" height="3" fill="#F2EFE9"/><rect x="170" y="25" width="3" height="3" fill="#F2EFE9"/><rect x="170" y="28" width="3" height="3" fill="#F2EFE9"/><rect x="170" y="31" width="12" height="3" fill="#F2EFE9"/><rect x="170" y="34" width="3" height="3" fill="#F2EFE9"/><rect x="170" y="37" width="3" height="3" fill="#F2EFE9"/><rect x="170" y="40" width="15" height="3" fill="#F2EFE9"/><rect x="191" y="22" width="12" height="3" fill="#F2EFE9"/><rect x="188" y="25" width="3" height="3" fill="#F2EFE9"/><rect x="188" y="28" width="3" height="3" fill="#F2EFE9"/><rect x="191" y="31" width="9" height="3" fill="#F2EFE9"/><rect x="200" y="34" width="3" height="3" fill="#F2EFE9"/><rect x="200" y="37" width="3" height="3" fill="#F2EFE9"/><rect x="188" y="40" width="12" height="3" fill="#F2EFE9"/><rect x="209" y="22" width="12" height="3" fill="#F2EFE9"/><rect x="206" y="25" width="3" height="3" fill="#F2EFE9"/><rect x="206" y="28" width="3" height="3" fill="#F2EFE9"/><rect x="209" y="31" width="9" height="3" fill="#F2EFE9"/><rect x="218" y="34" width="3" height="3" fill="#F2EFE9"/><rect x="218" y="37" width="3" height="3" fill="#F2EFE9"/><rect x="206" y="40" width="12" height="3" fill="#F2EFE9"/><rect x="227" y="22" width="9" height="3" fill="#F2EFE9"/><rect x="224" y="25" width="3" height="3" fill="#F2EFE9"/><rect x="236" y="25" width="3" height="3" fill="#F2EFE9"/><rect x="224" y="28" width="3" height="3" fill="#F2EFE9"/><rect x="236" y="28" width="3" height="3" fill="#F2EFE9"/><rect x="224" y="31" width="15" height="3" fill="#F2EFE9"/><rect x="224" y="34" width="3" height="3" fill="#F2EFE9"/><rect x="236" y="34" width="3" height="3" fill="#F2EFE9"/><rect x="224" y="37" width="3" height="3" fill="#F2EFE9"/><rect x="236" y="37" width="3" height="3" fill="#F2EFE9"/><rect x="224" y="40" width="3" height="3" fill="#F2EFE9"/><rect x="236" y="40" width="3" height="3" fill="#F2EFE9"/><rect x="245" y="22" width="12" height="3" fill="#F2EFE9"/><rect x="242" y="25" width="3" height="3" fill="#F2EFE9"/><rect x="242" y="28" width="3" height="3" fill="#F2EFE9"/><rect x="242" y="31" width="3" height="3" fill="#F2EFE9"/><rect x="248" y="31" width="9" height="3" fill="#F2EFE9"/><rect x="242" y="34" width="3" height="3" fill="#F2EFE9"/><rect x="254" y="34" width="3" height="3" fill="#F2EFE9"/><rect x="242" y="37" width="3" height="3" fill="#F2EFE9"/><rect x="254" y="37" width="3" height="3" fill="#F2EFE9"/><rect x="245" y="40" width="12" height="3" fill="#F2EFE9"/><rect x="260" y="22" width="15" height="3" fill="#F2EFE9"/><rect x="260" y="25" width="3" height="3" fill="#F2EFE9"/><rect x="260" y="28" width="3" height="3" fill="#F2EFE9"/><rect x="260" y="31" width="12" height="3" fill="#F2EFE9"/><rect x="260" y="34" width="3" height="3" fill="#F2EFE9"/><rect x="260" y="37" width="3" height="3" fill="#F2EFE9"/><rect x="260" y="40" width="15" height="3" fill="#F2EFE9"/>
<rect x="285" y="36" width="14" height="5" fill="#F2C230"><animate attributeName="opacity" values="1;1;0;0;1" dur="1.1s" repeatCount="indefinite"/></rect>
</svg>