<svg xmlns="http://www.w3.org/2000/svg" viewBox="0 0 900 150" width="900" height="150">
<rect width="900" height="150" fill="#0F0F11"/>
<g opacity="0.10">
<rect x="0" y="0" width="900" height="2" fill="#000000"/>
<rect x="0" y="8" width="900" height="2" fill="#000000"/>
<rect x="0" y="16" width="900" height="2" fill="#000000"/>
<rect x="0" y="24" width="900" height="2" fill="#000000"/>
<rect x="0" y="32" width="900" height="2" fill="#000000"/>
<rect x="0" y="40" width="900" height="2" fill="#000000"/>
<rect x="0" y="48" width="900" height="2" fill="#000000"/>
<rect x="0" y="56" width="900" height="2" fill="#000000"/>
<rect x="0" y="64" width="900" height="2" fill="#000000"/>
<rect x="0" y="72" width="900" height="2" fill="#000000"/>
<rect x="0" y="80" width="900" height="2" fill="#000000"/>
<rect x="0" y="88" width="900" height="2" fill="#000000"/>
<rect x="0" y="96" width="900" height="2" fill="#000000"/>
<rect x="0" y="104" width="900" height="2" fill="#000000"/>
<rect x="0" y="112" width="900" height="2" fill="#000000"/>
<rect x="0" y="120" width="900" height="2" fill="#000000"/>
<rect x="0" y="128" width="900" height="2" fill="#000000"/>
<rect x="0" y="136" width="900" height="2" fill="#000000"/>
<rect x="0" y="144" width="900" height="2" fill="#000000"/>
</g>
<rect x="1" y="1" width="898" height="148" fill="none" stroke="#2B2B30" stroke-width="2"/>
<rect x="6" y="6" width="14" height="3" fill="#E8502F"/>
<rect x="6" y="6" width="3" height="14" fill="#E8502F"/>
<rect x="880" y="6" width="14" height="3" fill="#E8502F"/>
<rect x="891" y="6" width="3" height="14" fill="#E8502F"/>
<rect x="6" y="141" width="14" height="3" fill="#E8502F"/>
<rect x="6" y="130" width="3" height="14" fill="#E8502F"/>
<rect x="880" y="141" width="14" height="3" fill="#E8502F"/>
<rect x="891" y="130" width="3" height="14" fill="#E8502F"/>
<rect x="30" y="22" width="16" height="4" fill="#F2C230"/><rect x="26" y="26" width="4" height="4" fill="#F2C230"/><rect x="26" y="30" width="4" height="4" fill="#F2C230"/><rect x="30" y="34" width="12" height="4" fill="#F2C230"/><rect x="42" y="38" width="4" height="4" fill="#F2C230"/><rect x="42" y="42" width="4" height="4" fill="#F2C230"/><rect x="26" y="46" width="16" height="4" fill="#F2C230"/><rect x="54" y="22" width="12" height="4" fill="#F2C230"/><rect x="50" y="26" width="4" height="4" fill="#F2C230"/><rect x="66" y="26" width="4" height="4" fill="#F2C230"/><rect x="50" y="30" width="4" height="4" fill="#F2C230"/><rect x="66" y="30" width="4" height="4" fill="#F2C230"/><rect x="50" y="34" width="4" height="4" fill="#F2C230"/><rect x="66" y="34" width="4" height="4" fill="#F2C230"/><rect x="50" y="38" width="4" height="4" fill="#F2C230"/><rect x="66" y="38" width="4" height="4" fill="#F2C230"/><rect x="50" y="42" width="4" height="4" fill="#F2C230"/><rect x="66" y="42" width="4" height="4" fill="#F2C230"/><rect x="54" y="46" width="12" height="4" fill="#F2C230"/><rect x="74" y="22" width="4" height="4" fill="#F2C230"/><rect x="90" y="22" width="4" height="4" fill="#F2C230"/><rect x="74" y="26" width="4" height="4" fill="#F2C230"/><rect x="90" y="26" width="4" height="4" fill="#F2C230"/><rect x="74" y="30" width="4" height="4" fill="#F2C230"/><rect x="90" y="30" width="4" height="4" fill="#F2C230"/><rect x="74" y="34" width="4" height="4" fill="#F2C230"/><rect x="90" y="34" width="4" height="4" fill="#F2C230"/><rect x="74" y="38" width="4" height="4" fill="#F2C230"/><rect x="90" y="38" width="4" height="4" fill="#F2C230"/><rect x="74" y="42" width="4" height="4" fill="#F2C230"/><rect x="90" y="42" width="4" height="4" fill="#F2C230"/><rect x="78" y="46" width="12" height="4" fill="#F2C230"/><rect x="98" y="22" width="4" height="4" fill="#F2C230"/><rect x="114" y="22" width="4" height="4" fill="#F2C230"/><rect x="98" y="26" width="8" height="4" fill="#F2C230"/><rect x="114" y="26" width="4" height="4" fill="#F2C230"/><rect x="98" y="30" width="8" height="4" fill="#F2C230"/><rect x="114" y="30" width="4" height="4" fill="#F2C230"/><rect x="98" y="34" width="4" height="4" fill="#F2C230"/><rect x="106" y="34" width="4" height="4" fill="#F2C230"/><rect x="114" y="34" width="4" height="4" fill="#F2C230"/><rect x="98" y="38" width="4" height="4" fill="#F2C230"/><rect x="110" y="38" width="8" height="4" fill="#F2C230"/><rect x="98" y="42" width="4" height="4" fill="#F2C230"/><rect x="110" y="42" width="8" height="4" fill="#F2C230"/><rect x="98" y="46" width="4" height="4" fill="#F2C230"/><rect x="114" y="46" width="4" height="4" fill="#F2C230"/><rect x="122" y="22" width="16" height="4" fill="#F2C230"/><rect x="122" y="26" width="4" height="4" fill="#F2C230"/><rect x="138" y="26" width="4" height="4" fill="#F2C230"/><rect x="122" y="30" width="4" height="4" fill="#F2C230"/><rect x="138" y="30" width="4" height="4" fill="#F2C230"/><rect x="122" y="34" width="4" height="4" fill="#F2C230"/><rect x="138" y="34" width="4" height="4" fill="#F2C230"/><rect x="122" y="38" width="4" height="4" fill="#F2C230"/><rect x="138" y="38" width="4" height="4" fill="#F2C230"/><rect x="122" y="42" width="4" height="4" fill="#F2C230"/><rect x="138" y="42" width="4" height="4" fill="#F2C230"/><rect x="122" y="46" width="16" height="4" fill="#F2C230"/><rect x="170" y="22" width="20" height="4" fill="#F2C230"/><rect x="178" y="26" width="4" height="4" fill="#F2C230"/><rect x="178" y="30" width="4" height="4" fill="#F2C230"/><rect x="178" y="34" width="4" height="4" fill="#F2C230"/><rect x="178" y="38" width="4" height="4" fill="#F2C230"/><rect x="178" y="42" width="4" height="4" fill="#F2C230"/><rect x="178" y="46" width="4" height="4" fill="#F2C230"/><rect x="194" y="22" width="20" height="4" fill="#F2C230"/><rect x="194" y="26" width="4" height="4" fill="#F2C230"/><rect x="194" y="30" width="4" height="4" fill="#F2C230"/><rect x="194" y="34" width="16" height="4" fill="#F2C230"/><rect x="194" y="38" width="4" height="4" fill="#F2C230"/><rect x="194" y="42" width="4" height="4" fill="#F2C230"/><rect x="194" y="46" width="20" height="4" fill="#F2C230"/><rect x="222" y="22" width="16" height="4" fill="#F2C230"/><rect x="218" y="26" width="4" height="4" fill="#F2C230"/><rect x="218" y="30" width="4" height="4" fill="#F2C230"/><rect x="222" y="34" width="12" height="4" fill="#F2C230"/><rect x="234" y="38" width="4" height="4" fill="#F2C230"/><rect x="234" y="42" width="4" height="4" fill="#F2C230"/><rect x="218" y="46" width="16" height="4" fill="#F2C230"/><rect x="242" y="22" width="20" height="4" fill="#F2C230"/><rect x="250" y="26" width="4" height="4" fill="#F2C230"/><rect x="250" y="30" width="4" height="4" fill="#F2C230"/><rect x="250" y="34" width="4" height="4" fill="#F2C230"/><rect x="250" y="38" width="4" height="4" fill="#F2C230"/><rect x="250" y="42" width="4" height="4" fill="#F2C230"/><rect x="250" y="46" width="4" height="4" fill="#F2C230"/>
<g opacity="0.75"><rect x="28" y="60" width="6" height="2" fill="#F2EFE9"/><rect x="26" y="62" width="2" height="2" fill="#F2EFE9"/><rect x="34" y="62" width="2" height="2" fill="#F2EFE9"/><rect x="34" y="64" width="2" height="2" fill="#F2EFE9"/><rect x="30" y="66" width="4" height="2" fill="#F2EFE9"/><rect x="28" y="68" width="2" height="2" fill="#F2EFE9"/><rect x="26" y="70" width="2" height="2" fill="#F2EFE9"/><rect x="26" y="72" width="10" height="2" fill="#F2EFE9"/><rect x="38" y="60" width="10" height="2" fill="#F2EFE9"/><rect x="46" y="62" width="2" height="2" fill="#F2EFE9"/><rect x="44" y="64" width="2" height="2" fill="#F2EFE9"/><rect x="42" y="66" width="2" height="2" fill="#F2EFE9"/><rect x="40" y="68" width="2" height="2" fill="#F2EFE9"/><rect x="40" y="70" width="2" height="2" fill="#F2EFE9"/><rect x="40" y="72" width="2" height="2" fill="#F2EFE9"/><rect x="62" y="60" width="2" height="2" fill="#F2EFE9"/><rect x="70" y="60" width="2" height="2" fill="#F2EFE9"/><rect x="64" y="62" width="2" height="2" fill="#F2EFE9"/><rect x="68" y="62" width="2" height="2" fill="#F2EFE9"/><rect x="66" y="64" width="2" height="2" fill="#F2EFE9"/><rect x="66" y="66" width="2" height="2" fill="#F2EFE9"/><rect x="66" y="68" width="2" height="2" fill="#F2EFE9"/><rect x="66" y="70" width="2" height="2" fill="#F2EFE9"/><rect x="66" y="72" width="2" height="2" fill="#F2EFE9"/><rect x="74" y="60" width="10" height="2" fill="#F2EFE9"/><rect x="74" y="62" width="2" height="2" fill="#F2EFE9"/><rect x="74" y="64" width="2" height="2" fill="#F2EFE9"/><rect x="74" y="66" width="8" height="2" fill="#F2EFE9"/><rect x="74" y="68" width="2" height="2" fill="#F2EFE9"/><rect x="74" y="70" width="2" height="2" fill="#F2EFE9"/><rect x="74" y="72" width="10" height="2" fill="#F2EFE9"/><rect x="88" y="60" width="6" height="2" fill="#F2EFE9"/><rect x="86" y="62" width="2" height="2" fill="#F2EFE9"/><rect x="94" y="62" width="2" height="2" fill="#F2EFE9"/><rect x="86" y="64" width="2" height="2" fill="#F2EFE9"/><rect x="94" y="64" width="2" height="2" fill="#F2EFE9"/><rect x="86" y="66" width="10" height="2" fill="#F2EFE9"/><rect x="86" y="68" width="2" height="2" fill="#F2EFE9"/><rect x="94" y="68" width="2" height="2" fill="#F2EFE9"/><rect x="86" y="70" width="2" height="2" fill="#F2EFE9"/><rect x="94" y="70" width="2" height="2" fill="#F2EFE9"/><rect x="86" y="72" width="2" height="2" fill="#F2EFE9"/><rect x="94" y="72" width="2" height="2" fill="#F2EFE9"/><rect x="98" y="60" width="8" height="2" fill="#F2EFE9"/><rect x="98" y="62" width="2" height="2" fill="#F2EFE9"/><rect x="106" y="62" width="2" height="2" fill="#F2EFE9"/><rect x="98" y="64" width="2" height="2" fill="#F2EFE9"/><rect x="106" y="64" width="2" height="2" fill="#F2EFE9"/><rect x="98" y="66" width="8" height="2" fill="#F2EFE9"/><rect x="98" y="68" width="2" height="2" fill="#F2EFE9"/><rect x="102" y="68" width="2" height="2" fill="#F2EFE9"/><rect x="98" y="70" width="2" height="2" fill="#F2EFE9"/><rect x="104" y="70" width="2" height="2" fill="#F2EFE9"/><rect x="98" y="72" width="2" height="2" fill="#F2EFE9"/><rect x="106" y="72" width="2" height="2" fill="#F2EFE9"/><rect x="112" y="60" width="8" height="2" fill="#F2EFE9"/><rect x="110" y="62" width="2" height="2" fill="#F2EFE9"/><rect x="110" y="64" width="2" height="2" fill="#F2EFE9"/><rect x="112" y="66" width="6" height="2" fill="#F2EFE9"/><rect x="118" y="68" width="2" height="2" fill="#F2EFE9"/><rect x="118" y="70" width="2" height="2" fill="#F2EFE9"/><rect x="110" y="72" width="8" height="2" fill="#F2EFE9"/><rect x="134" y="60" width="8" height="2" fill="#F2EFE9"/><rect x="134" y="62" width="2" height="2" fill="#F2EFE9"/><rect x="142" y="62" width="2" height="2" fill="#F2EFE9"/><rect x="134" y="64" width="2" height="2" fill="#F2EFE9"/><rect x="142" y="64" width="2" height="2" fill="#F2EFE9"/><rect x="134" y="66" width="8" height="2" fill="#F2EFE9"/><rect x="134" y="68" width="2" height="2" fill="#F2EFE9"/><rect x="142" y="68" width="2" height="2" fill="#F2EFE9"/><rect x="134" y="70" width="2" height="2" fill="#F2EFE9"/><rect x="142" y="70" width="2" height="2" fill="#F2EFE9"/><rect x="134" y="72" width="8" height="2" fill="#F2EFE9"/><rect x="146" y="60" width="10" height="2" fill="#F2EFE9"/><rect x="146" y="62" width="2" height="2" fill="#F2EFE9"/><rect x="146" y="64" width="2" height="2" fill="#F2EFE9"/><rect x="146" y="66" width="8" height="2" fill="#F2EFE9"/><rect x="146" y="68" width="2" height="2" fill="#F2EFE9"/><rect x="146" y="70" width="2" height="2" fill="#F2EFE9"/><rect x="146" y="72" width="10" height="2" fill="#F2EFE9"/><rect x="158" y="60" width="2" height="2" fill="#F2EFE9"/><rect x="166" y="60" width="2" height="2" fill="#F2EFE9"/><rect x="158" y="62" width="2" height="2" fill="#F2EFE9"/><rect x="166" y="62" width="2" height="2" fill="#F2EFE9"/><rect x="158" y="64" width="2" height="2" fill="#F2EFE9"/><rect x="166" y="64" width="2" height="2" fill="#F2EFE9"/><rect x="158" y="66" width="10" height="2" fill="#F2EFE9"/><rect x="158" y="68" width="2" height="2" fill="#F2EFE9"/><rect x="166" y="68" width="2" height="2" fill="#F2EFE9"/><rect x="158" y="70" width="2" height="2" fill="#F2EFE9"/><rect x="166" y="70" width="2" height="2" fill="#F2EFE9"/><rect x="158" y="72" width="2" height="2" fill="#F2EFE9"/><rect x="166" y="72" width="2" height="2" fill="#F2EFE9"/><rect x="172" y="60" width="6" height="2" fill="#F2EFE9"/><rect x="174" y="62" width="2" height="2" fill="#F2EFE9"/><rect x="174" y="64" width="2" height="2" fill="#F2EFE9"/><rect x="174" y="66" width="2" height="2" fill="#F2EFE9"/><rect x="174" y="68" width="2" height="2" fill="#F2EFE9"/><rect x="174" y="70" width="2" height="2" fill="#F2EFE9"/><rect x="172" y="72" width="6" height="2" fill="#F2EFE9"/><rect x="182" y="60" width="2" height="2" fill="#F2EFE9"/><rect x="190" y="60" width="2" height="2" fill="#F2EFE9"/><rect x="182" y="62" width="4" height="2" fill="#F2EFE9"/><rect x="190" y="62" width="2" height="2" fill="#F2EFE9"/><rect x="182" y="64" width="4" height="2" fill="#F2EFE9"/><rect x="190" y="64" width="2" height="2" fill="#F2EFE9"/><rect x="182" y="66" width="2" height="2" fill="#F2EFE9"/><rect x="186" y="66" width="2" height="2" fill="#F2EFE9"/><rect x="190" y="66" width="2" height="2" fill="#F2EFE9"/><rect x="182" y="68" width="2" height="2" fill="#F2EFE9"/><rect x="188" y="68" width="4" height="2" fill="#F2EFE9"/><rect x="182" y="70" width="2" height="2" fill="#F2EFE9"/><rect x="188" y="70" width="4" height="2" fill="#F2EFE9"/><rect x="182" y="72" width="2" height="2" fill="#F2EFE9"/><rect x="190" y="72" width="2" height="2" fill="#F2EFE9"/><rect x="194" y="60" width="8" height="2" fill="#F2EFE9"/><rect x="194" y="62" width="2" height="2" fill="#F2EFE9"/><rect x="202" y="62" width="2" height="2" fill="#F2EFE9"/><rect x="194" y="64" width="2" height="2" fill="#F2EFE9"/><rect x="202" y="64" width="2" height="2" fill="#F2EFE9"/><rect x="194" y="66" width="2" height="2" fill="#F2EFE9"/><rect x="202" y="66" width="2" height="2" fill="#F2EFE9"/><rect x="194" y="68" width="2" height="2" fill="#F2EFE9"/><rect x="202" y="68" width="2" height="2" fill="#F2EFE9"/><rect x="194" y="70" width="2" height="2" fill="#F2EFE9"/><rect x="202" y="70" width="2" height="2" fill="#F2EFE9"/><rect x="194" y="72" width="8" height="2" fill="#F2EFE9"/><rect x="218" y="60" width="10" height="2" fill="#F2EFE9"/><rect x="222" y="62" width="2" height="2" fill="#F2EFE9"/><rect x="222" y="64" width="2" height="2" fill="#F2EFE9"/><rect x="222" y="66" width="2" height="2" fill="#F2EFE9"/><rect x="222" y="68" width="2" height="2" fill="#F2EFE9"/><rect x="222" y="70" width="2" height="2" fill="#F2EFE9"/><rect x="222" y="72" width="2" height="2" fill="#F2EFE9"/><rect x="230" y="60" width="2" height="2" fill="#F2EFE9"/><rect x="238" y="60" width="2" height="2" fill="#F2EFE9"/><rect x="230" y="62" width="2" height="2" fill="#F2EFE9"/><rect x="238" y="62" width="2" height="2" fill="#F2EFE9"/><rect x="230" y="64" width="2" height="2" fill="#F2EFE9"/><rect x="238" y="64" width="2" height="2" fill="#F2EFE9"/><rect x="230" y="66" width="10" height="2" fill="#F2EFE9"/><rect x="230" y="68" width="2" height="2" fill="#F2EFE9"/><rect x="238" y="68" width="2" height="2" fill="#F2EFE9"/><rect x="230" y="70" width="2" height="2" fill="#F2EFE9"/><rect x="238" y="70" width="2" height="2" fill="#F2EFE9"/><rect x="230" y="72" width="2" height="2" fill="#F2EFE9"/><rect x="238" y="72" width="2" height="2" fill="#F2EFE9"/><rect x="242" y="60" width="10" height="2" fill="#F2EFE9"/><rect x="242" y="62" width="2" height="2" fill="#F2EFE9"/><rect x="242" y="64" width="2" height="2" fill="#F2EFE9"/><rect x="242" y="66" width="8" height="2" fill="#F2EFE9"/><rect x="242" y="68" width="2" height="2" fill="#F2EFE9"/><rect x="242" y="70" width="2" height="2" fill="#F2EFE9"/><rect x="242" y="72" width="10" height="2" fill="#F2EFE9"/><rect x="266" y="60" width="8" height="2" fill="#F2EFE9"/><rect x="266" y="62" width="2" height="2" fill="#F2EFE9"/><rect x="274" y="62" width="2" height="2" fill="#F2EFE9"/><rect x="266" y="64" width="2" height="2" fill="#F2EFE9"/><rect x="274" y="64" width="2" height="2" fill="#F2EFE9"/><rect x="266" y="66" width="2" height="2" fill="#F2EFE9"/><rect x="274" y="66" width="2" height="2" fill="#F2EFE9"/><rect x="266" y="68" width="2" height="2" fill="#F2EFE9"/><rect x="274" y="68" width="2" height="2" fill="#F2EFE9"/><rect x="266" y="70" width="2" height="2" fill="#F2EFE9"/><rect x="274" y="70" width="2" height="2" fill="#F2EFE9"/><rect x="266" y="72" width="8" height="2" fill="#F2EFE9"/><rect x="278" y="60" width="10" height="2" fill="#F2EFE9"/><rect x="278" y="62" width="2" height="2" fill="#F2EFE9"/><rect x="278" y="64" width="2" height="2" fill="#F2EFE9"/><rect x="278" y="66" width="8" height="2" fill="#F2EFE9"/><rect x="278" y="68" width="2" height="2" fill="#F2EFE9"/><rect x="278" y="70" width="2" height="2" fill="#F2EFE9"/><rect x="278" y="72" width="10" height="2" fill="#F2EFE9"/><rect x="292" y="60" width="8" height="2" fill="#F2EFE9"/><rect x="290" y="62" width="2" height="2" fill="#F2EFE9"/><rect x="290" y="64" width="2" height="2" fill="#F2EFE9"/><rect x="292" y="66" width="6" height="2" fill="#F2EFE9"/><rect x="298" y="68" width="2" height="2" fill="#F2EFE9"/><rect x="298" y="70" width="2" height="2" fill="#F2EFE9"/><rect x="290" y="72" width="8" height="2" fill="#F2EFE9"/><rect x="302" y="60" width="2" height="2" fill="#F2EFE9"/><rect x="310" y="60" width="2" height="2" fill="#F2EFE9"/><rect x="302" y="62" width="2" height="2" fill="#F2EFE9"/><rect x="308" y="62" width="2" height="2" fill="#F2EFE9"/><rect x="302" y="64" width="2" height="2" fill="#F2EFE9"/><rect x="306" y="64" width="2" height="2" fill="#F2EFE9"/><rect x="302" y="66" width="4" height="2" fill="#F2EFE9"/><rect x="302" y="68" width="2" height="2" fill="#F2EFE9"/><rect x="306" y="68" width="2" height="2" fill="#F2EFE9"/><rect x="302" y="70" width="2" height="2" fill="#F2EFE9"/><rect x="308" y="70" width="2" height="2" fill="#F2EFE9"/><rect x="302" y="72" width="2" height="2" fill="#F2EFE9"/><rect x="310" y="72" width="2" height="2" fill="#F2EFE9"/><rect x="328" y="66" width="6" height="2" fill="#F2EFE9"/><rect x="350" y="60" width="8" height="2" fill="#F2EFE9"/><rect x="350" y="62" width="2" height="2" fill="#F2EFE9"/><rect x="358" y="62" width="2" height="2" fill="#F2EFE9"/><rect x="350" y="64" width="2" height="2" fill="#F2EFE9"/><rect x="358" y="64" width="2" height="2" fill="#F2EFE9"/><rect x="350" y="66" width="8" height="2" fill="#F2EFE9"/><rect x="350" y="68" width="2" height="2" fill="#F2EFE9"/><rect x="350" y="70" width="2" height="2" fill="#F2EFE9"/><rect x="350" y="72" width="2" height="2" fill="#F2EFE9"/><rect x="362" y="60" width="2" height="2" fill="#F2EFE9"/><rect x="362" y="62" width="2" height="2" fill="#F2EFE9"/><rect x="362" y="64" width="2" height="2" fill="#F2EFE9"/><rect x="362" y="66" width="2" height="2" fill="#F2EFE9"/><rect x="362" y="68" width="2" height="2" fill="#F2EFE9"/><rect x="362" y="70" width="2" height="2" fill="#F2EFE9"/><rect x="362" y="72" width="10" height="2" fill="#F2EFE9"/><rect x="376" y="60" width="6" height="2" fill="#F2EFE9"/><rect x="374" y="62" width="2" height="2" fill="#F2EFE9"/><rect x="382" y="62" width="2" height="2" fill="#F2EFE9"/><rect x="374" y="64" width="2" height="2" fill="#F2EFE9"/><rect x="382" y="64" width="2" height="2" fill="#F2EFE9"/><rect x="374" y="66" width="10" height="2" fill="#F2EFE9"/><rect x="374" y="68" width="2" height="2" fill="#F2EFE9"/><rect x="382" y="68" width="2" height="2" fill="#F2EFE9"/><rect x="374" y="70" width="2" height="2" fill="#F2EFE9"/><rect x="382" y="70" width="2" height="2" fill="#F2EFE9"/><rect x="374" y="72" width="2" height="2" fill="#F2EFE9"/><rect x="382" y="72" width="2" height="2" fill="#F2EFE9"/><rect x="386" y="60" width="10" height="2" fill="#F2EFE9"/><rect x="390" y="62" width="2" height="2" fill="#F2EFE9"/><rect x="390" y="64" width="2" height="2" fill="#F2EFE9"/><rect x="390" y="66" width="2" height="2" fill="#F2EFE9"/><rect x="390" y="68" width="2" height="2" fill="#F2EFE9"/><rect x="390" y="70" width="2" height="2" fill="#F2EFE9"/><rect x="390" y="72" width="2" height="2" fill="#F2EFE9"/><rect x="400" y="60" width="6" height="2" fill="#F2EFE9"/><rect x="402" y="62" width="2" height="2" fill="#F2EFE9"/><rect x="402" y="64" width="2" height="2" fill="#F2EFE9"/><rect x="402" y="66" width="2" height="2" fill="#F2EFE9"/><rect x="402" y="68" width="2" height="2" fill="#F2EFE9"/><rect x="402" y="70" width="2" height="2" fill="#F2EFE9"/><rect x="400" y="72" width="6" height="2" fill="#F2EFE9"/><rect x="410" y="60" width="2" height="2" fill="#F2EFE9"/><rect x="418" y="60" width="2" height="2" fill="#F2EFE9"/><rect x="410" y="62" width="4" height="2" fill="#F2EFE9"/><rect x="418" y="62" width="2" height="2" fill="#F2EFE9"/><rect x="410" y="64" width="4" height="2" fill="#F2EFE9"/><rect x="418" y="64" width="2" height="2" fill="#F2EFE9"/><rect x="410" y="66" width="2" height="2" fill="#F2EFE9"/><rect x="414" y="66" width="2" height="2" fill="#F2EFE9"/><rect x="418" y="66" width="2" height="2" fill="#F2EFE9"/><rect x="410" y="68" width="2" height="2" fill="#F2EFE9"/><rect x="416" y="68" width="4" height="2" fill="#F2EFE9"/><rect x="410" y="70" width="2" height="2" fill="#F2EFE9"/><rect x="416" y="70" width="4" height="2" fill="#F2EFE9"/><rect x="410" y="72" width="2" height="2" fill="#F2EFE9"/><rect x="418" y="72" width="2" height="2" fill="#F2EFE9"/><rect x="422" y="60" width="2" height="2" fill="#F2EFE9"/><rect x="430" y="60" width="2" height="2" fill="#F2EFE9"/><rect x="422" y="62" width="2" height="2" fill="#F2EFE9"/><rect x="430" y="62" width="2" height="2" fill="#F2EFE9"/><rect x="422" y="64" width="2" height="2" fill="#F2EFE9"/><rect x="430" y="64" width="2" height="2" fill="#F2EFE9"/><rect x="422" y="66" width="2" height="2" fill="#F2EFE9"/><rect x="430" y="66" width="2" height="2" fill="#F2EFE9"/><rect x="422" y="68" width="2" height="2" fill="#F2EFE9"/><rect x="430" y="68" width="2" height="2" fill="#F2EFE9"/><rect x="422" y="70" width="2" height="2" fill="#F2EFE9"/><rect x="430" y="70" width="2" height="2" fill="#F2EFE9"/><rect x="424" y="72" width="6" height="2" fill="#F2EFE9"/><rect x="434" y="60" width="2" height="2" fill="#F2EFE9"/><rect x="442" y="60" width="2" height="2" fill="#F2EFE9"/><rect x="434" y="62" width="4" height="2" fill="#F2EFE9"/><rect x="440" y="62" width="4" height="2" fill="#F2EFE9"/><rect x="434" y="64" width="2" height="2" fill="#F2EFE9"/><rect x="438" y="64" width="2" height="2" fill="#F2EFE9"/><rect x="442" y="64" width="2" height="2" fill="#F2EFE9"/><rect x="434" y="66" width="2" height="2" fill="#F2EFE9"/><rect x="438" y="66" width="2" height="2" fill="#F2EFE9"/><rect x="442" y="66" width="2" height="2" fill="#F2EFE9"/><rect x="434" y="68" width="2" height="2" fill="#F2EFE9"/><rect x="442" y="68" width="2" height="2" fill="#F2EFE9"/><rect x="434" y="70" width="2" height="2" fill="#F2EFE9"/><rect x="442" y="70" width="2" height="2" fill="#F2EFE9"/><rect x="434" y="72" width="2" height="2" fill="#F2EFE9"/><rect x="442" y="72" width="2" height="2" fill="#F2EFE9"/><rect x="460" y="60" width="6" height="2" fill="#F2EFE9"/><rect x="458" y="62" width="2" height="2" fill="#F2EFE9"/><rect x="466" y="62" width="2" height="2" fill="#F2EFE9"/><rect x="458" y="64" width="2" height="2" fill="#F2EFE9"/><rect x="466" y="64" width="2" height="2" fill="#F2EFE9"/><rect x="458" y="66" width="10" height="2" fill="#F2EFE9"/><rect x="458" y="68" width="2" height="2" fill="#F2EFE9"/><rect x="466" y="68" width="2" height="2" fill="#F2EFE9"/><rect x="458" y="70" width="2" height="2" fill="#F2EFE9"/><rect x="466" y="70" width="2" height="2" fill="#F2EFE9"/><rect x="458" y="72" width="2" height="2" fill="#F2EFE9"/><rect x="466" y="72" width="2" height="2" fill="#F2EFE9"/><rect x="470" y="60" width="2" height="2" fill="#F2EFE9"/><rect x="478" y="60" width="2" height="2" fill="#F2EFE9"/><rect x="470" y="62" width="4" height="2" fill="#F2EFE9"/><rect x="478" y="62" width="2" height="2" fill="#F2EFE9"/><rect x="470" y="64" width="4" height="2" fill="#F2EFE9"/><rect x="478" y="64" width="2" height="2" fill="#F2EFE9"/><rect x="470" y="66" width="2" height="2" fill="#F2EFE9"/><rect x="474" y="66" width="2" height="2" fill="#F2EFE9"/><rect x="478" y="66" width="2" height="2" fill="#F2EFE9"/><rect x="470" y="68" width="2" height="2" fill="#F2EFE9"/><rect x="476" y="68" width="4" height="2" fill="#F2EFE9"/><rect x="470" y="70" width="2" height="2" fill="#F2EFE9"/><rect x="476" y="70" width="4" height="2" fill="#F2EFE9"/><rect x="470" y="72" width="2" height="2" fill="#F2EFE9"/><rect x="478" y="72" width="2" height="2" fill="#F2EFE9"/><rect x="482" y="60" width="8" height="2" fill="#F2EFE9"/><rect x="482" y="62" width="2" height="2" fill="#F2EFE9"/><rect x="490" y="62" width="2" height="2" fill="#F2EFE9"/><rect x="482" y="64" width="2" height="2" fill="#F2EFE9"/><rect x="490" y="64" width="2" height="2" fill="#F2EFE9"/><rect x="482" y="66" width="2" height="2" fill="#F2EFE9"/><rect x="490" y="66" width="2" height="2" fill="#F2EFE9"/><rect x="482" y="68" width="2" height="2" fill="#F2EFE9"/><rect x="490" y="68" width="2" height="2" fill="#F2EFE9"/><rect x="482" y="70" width="2" height="2" fill="#F2EFE9"/><rect x="490" y="70" width="2" height="2" fill="#F2EFE9"/><rect x="482" y="72" width="8" height="2" fill="#F2EFE9"/><rect x="508" y="60" width="8" height="2" fill="#F2EFE9"/><rect x="506" y="62" width="2" height="2" fill="#F2EFE9"/><rect x="506" y="64" width="2" height="2" fill="#F2EFE9"/><rect x="506" y="66" width="2" height="2" fill="#F2EFE9"/><rect x="510" y="66" width="6" height="2" fill="#F2EFE9"/><rect x="506" y="68" width="2" height="2" fill="#F2EFE9"/><rect x="514" y="68" width="2" height="2" fill="#F2EFE9"/><rect x="506" y="70" width="2" height="2" fill="#F2EFE9"/><rect x="514" y="70" width="2" height="2" fill="#F2EFE9"/><rect x="508" y="72" width="8" height="2" fill="#F2EFE9"/><rect x="520" y="60" width="6" height="2" fill="#F2EFE9"/><rect x="518" y="62" width="2" height="2" fill="#F2EFE9"/><rect x="526" y="62" width="2" height="2" fill="#F2EFE9"/><rect x="518" y="64" width="2" height="2" fill="#F2EFE9"/><rect x="526" y="64" width="2" height="2" fill="#F2EFE9"/><rect x="518" y="66" width="2" height="2" fill="#F2EFE9"/><rect x="526" y="66" width="2" height="2" fill="#F2EFE9"/><rect x="518" y="68" width="2" height="2" fill="#F2EFE9"/><rect x="526" y="68" width="2" height="2" fill="#F2EFE9"/><rect x="518" y="70" width="2" height="2" fill="#F2EFE9"/><rect x="526" y="70" width="2" height="2" fill="#F2EFE9"/><rect x="520" y="72" width="6" height="2" fill="#F2EFE9"/><rect x="530" y="60" width="2" height="2" fill="#F2EFE9"/><rect x="530" y="62" width="2" height="2" fill="#F2EFE9"/><rect x="530" y="64" width="2" height="2" fill="#F2EFE9"/><rect x="530" y="66" width="2" height="2" fill="#F2EFE9"/><rect x="530" y="68" width="2" height="2" fill="#F2EFE9"/><rect x="530" y="70" width="2" height="2" fill="#F2EFE9"/><rect x="530" y="72" width="10" height="2" fill="#F2EFE9"/><rect x="542" y="60" width="8" height="2" fill="#F2EFE9"/><rect x="542" y="62" width="2" height="2" fill="#F2EFE9"/><rect x="550" y="62" width="2" height="2" fill="#F2EFE9"/><rect x="542" y="64" width="2" height="2" fill="#F2EFE9"/><rect x="550" y="64" width="2" height="2" fill="#F2EFE9"/><rect x="542" y="66" width="2" height="2" fill="#F2EFE9"/><rect x="550" y="66" width="2" height="2" fill="#F2EFE9"/><rect x="542" y="68" width="2" height="2" fill="#F2EFE9"/><rect x="550" y="68" width="2" height="2" fill="#F2EFE9"/><rect x="542" y="70" width="2" height="2" fill="#F2EFE9"/><rect x="550" y="70" width="2" height="2" fill="#F2EFE9"/><rect x="542" y="72" width="8" height="2" fill="#F2EFE9"/><rect x="556" y="70" width="4" height="2" fill="#F2EFE9"/><rect x="556" y="72" width="2" height="2" fill="#F2EFE9"/><rect x="578" y="60" width="10" height="2" fill="#F2EFE9"/><rect x="578" y="62" width="2" height="2" fill="#F2EFE9"/><rect x="578" y="64" width="2" height="2" fill="#F2EFE9"/><rect x="578" y="66" width="8" height="2" fill="#F2EFE9"/><rect x="578" y="68" width="2" height="2" fill="#F2EFE9"/><rect x="578" y="70" width="2" height="2" fill="#F2EFE9"/><rect x="578" y="72" width="2" height="2" fill="#F2EFE9"/><rect x="592" y="60" width="6" height="2" fill="#F2EFE9"/><rect x="594" y="62" width="2" height="2" fill="#F2EFE9"/><rect x="594" y="64" width="2" height="2" fill="#F2EFE9"/><rect x="594" y="66" width="2" height="2" fill="#F2EFE9"/><rect x="594" y="68" width="2" height="2" fill="#F2EFE9"/><rect x="594" y="70" width="2" height="2" fill="#F2EFE9"/><rect x="592" y="72" width="6" height="2" fill="#F2EFE9"/><rect x="602" y="60" width="2" height="2" fill="#F2EFE9"/><rect x="610" y="60" width="2" height="2" fill="#F2EFE9"/><rect x="602" y="62" width="4" height="2" fill="#F2EFE9"/><rect x="608" y="62" width="4" height="2" fill="#F2EFE9"/><rect x="602" y="64" width="2" height="2" fill="#F2EFE9"/><rect x="606" y="64" width="2" height="2" fill="#F2EFE9"/><rect x="610" y="64" width="2" height="2" fill="#F2EFE9"/><rect x="602" y="66" width="2" height="2" fill="#F2EFE9"/><rect x="606" y="66" width="2" height="2" fill="#F2EFE9"/><rect x="610" y="66" width="2" height="2" fill="#F2EFE9"/><rect x="602" y="68" width="2" height="2" fill="#F2EFE9"/><rect x="610" y="68" width="2" height="2" fill="#F2EFE9"/><rect x="602" y="70" width="2" height="2" fill="#F2EFE9"/><rect x="610" y="70" width="2" height="2" fill="#F2EFE9"/><rect x="602" y="72" width="2" height="2" fill="#F2EFE9"/><rect x="610" y="72" width="2" height="2" fill="#F2EFE9"/><rect x="616" y="60" width="6" height="2" fill="#F2EFE9"/><rect x="618" y="62" width="2" height="2" fill="#F2EFE9"/><rect x="618" y="64" width="2" height="2" fill="#F2EFE9"/><rect x="618" y="66" width="2" height="2" fill="#F2EFE9"/><rect x="618" y="68" width="2" height="2" fill="#F2EFE9"/><rect x="618" y="70" width="2" height="2" fill="#F2EFE9"/><rect x="616" y="72" width="6" height="2" fill="#F2EFE9"/><rect x="640" y="60" width="8" height="2" fill="#F2EFE9"/><rect x="638" y="62" width="2" height="2" fill="#F2EFE9"/><rect x="638" y="64" width="2" height="2" fill="#F2EFE9"/><rect x="638" y="66" width="2" height="2" fill="#F2EFE9"/><rect x="638" y="68" width="2" height="2" fill="#F2EFE9"/><rect x="638" y="70" width="2" height="2" fill="#F2EFE9"/><rect x="640" y="72" width="8" height="2" fill="#F2EFE9"/><rect x="650" y="60" width="10" height="2" fill="#F2EFE9"/><rect x="650" y="62" width="2" height="2" fill="#F2EFE9"/><rect x="650" y="64" width="2" height="2" fill="#F2EFE9"/><rect x="650" y="66" width="8" height="2" fill="#F2EFE9"/><rect x="650" y="68" width="2" height="2" fill="#F2EFE9"/><rect x="650" y="70" width="2" height="2" fill="#F2EFE9"/><rect x="650" y="72" width="10" height="2" fill="#F2EFE9"/><rect x="662" y="60" width="8" height="2" fill="#F2EFE9"/><rect x="662" y="62" width="2" height="2" fill="#F2EFE9"/><rect x="670" y="62" width="2" height="2" fill="#F2EFE9"/><rect x="662" y="64" width="2" height="2" fill="#F2EFE9"/><rect x="670" y="64" width="2" height="2" fill="#F2EFE9"/><rect x="662" y="66" width="8" height="2" fill="#F2EFE9"/><rect x="662" y="68" width="2" height="2" fill="#F2EFE9"/><rect x="666" y="68" width="2" height="2" fill="#F2EFE9"/><rect x="662" y="70" width="2" height="2" fill="#F2EFE9"/><rect x="668" y="70" width="2" height="2" fill="#F2EFE9"/><rect x="662" y="72" width="2" height="2" fill="#F2EFE9"/><rect x="670" y="72" width="2" height="2" fill="#F2EFE9"/><rect x="674" y="60" width="10" height="2" fill="#F2EFE9"/><rect x="678" y="62" width="2" height="2" fill="#F2EFE9"/><rect x="678" y="64" width="2" height="2" fill="#F2EFE9"/><rect x="678" y="66" width="2" height="2" fill="#F2EFE9"/><rect x="678" y="68" width="2" height="2" fill="#F2EFE9"/><rect x="678" y="70" width="2" height="2" fill="#F2EFE9"/><rect x="678" y="72" width="2" height="2" fill="#F2EFE9"/><rect x="688" y="60" width="6" height="2" fill="#F2EFE9"/><rect x="690" y="62" width="2" height="2" fill="#F2EFE9"/><rect x="690" y="64" width="2" height="2" fill="#F2EFE9"/><rect x="690" y="66" width="2" height="2" fill="#F2EFE9"/><rect x="690" y="68" width="2" height="2" fill="#F2EFE9"/><rect x="690" y="70" width="2" height="2" fill="#F2EFE9"/><rect x="688" y="72" width="6" height="2" fill="#F2EFE9"/><rect x="698" y="60" width="10" height="2" fill="#F2EFE9"/><rect x="698" y="62" width="2" height="2" fill="#F2EFE9"/><rect x="698" y="64" width="2" height="2" fill="#F2EFE9"/><rect x="698" y="66" width="8" height="2" fill="#F2EFE9"/><rect x="698" y="68" width="2" height="2" fill="#F2EFE9"/><rect x="698" y="70" width="2" height="2" fill="#F2EFE9"/><rect x="698" y="72" width="2" height="2" fill="#F2EFE9"/><rect x="712" y="60" width="6" height="2" fill="#F2EFE9"/><rect x="714" y="62" width="2" height="2" fill="#F2EFE9"/><rect x="714" y="64" width="2" height="2" fill="#F2EFE9"/><rect x="714" y="66" width="2" height="2" fill="#F2EFE9"/><rect x="714" y="68" width="2" height="2" fill="#F2EFE9"/><rect x="714" y="70" width="2" height="2" fill="#F2EFE9"/><rect x="712" y="72" width="6" height="2" fill="#F2EFE9"/><rect x="722" y="60" width="10" height="2" fill="#F2EFE9"/><rect x="722" y="62" width="2" height="2" fill="#F2EFE9"/><rect x="722" y="64" width="2" height="2" fill="#F2EFE9"/><rect x="722" y="66" width="8" height="2" fill="#F2EFE9"/><rect x="722" y="68" width="2" height="2" fill="#F2EFE9"/><rect x="722" y="70" width="2" height="2" fill="#F2EFE9"/><rect x="722" y="72" width="10" height="2" fill="#F2EFE9"/><rect x="734" y="60" width="8" height="2" fill="#F2EFE9"/><rect x="734" y="62" width="2" height="2" fill="#F2EFE9"/><rect x="742" y="62" width="2" height="2" fill="#F2EFE9"/><rect x="734" y="64" width="2" height="2" fill="#F2EFE9"/><rect x="742" y="64" width="2" height="2" fill="#F2EFE9"/><rect x="734" y="66" width="2" height="2" fill="#F2EFE9"/><rect x="742" y="66" width="2" height="2" fill="#F2EFE9"/><rect x="734" y="68" width="2" height="2" fill="#F2EFE9"/><rect x="742" y="68" width="2" height="2" fill="#F2EFE9"/><rect x="734" y="70" width="2" height="2" fill="#F2EFE9"/><rect x="742" y="70" width="2" height="2" fill="#F2EFE9"/><rect x="734" y="72" width="8" height="2" fill="#F2EFE9"/></g>
<g><rect x="26" y="98" width="10" height="34" fill="#F2C230"/><rect x="42" y="91" width="10" height="41" fill="#F2EFE9"/><rect x="58" y="97" width="10" height="35" fill="#F2EFE9"/><rect x="74" y="98" width="10" height="34" fill="#F2EFE9"/><rect x="90" y="94" width="10" height="38" fill="#F2EFE9"/><rect x="106" y="89" width="10" height="43" fill="#F2EFE9"/><rect x="122" y="114" width="10" height="18" fill="#F2EFE9"/><rect x="138" y="115" width="10" height="17" fill="#F2C230"/><rect x="154" y="94" width="10" height="38" fill="#F2EFE9"/><rect x="170" y="96" width="10" height="36" fill="#F2EFE9"/><rect x="186" y="115" width="10" height="17" fill="#F2EFE9"/><rect x="202" y="120" width="10" height="12" fill="#F2EFE9"/><rect x="218" y="98" width="10" height="34" fill="#F2EFE9"/><rect x="234" y="107" width="10" height="25" fill="#F2EFE9"/><rect x="250" y="117" width="10" height="15" fill="#F2C230"/><rect x="266" y="121" width="10" height="11" fill="#F2EFE9"/><rect x="282" y="92" width="10" height="40" fill="#F2EFE9"/><rect x="298" y="124" width="10" height="8" fill="#E8502F"/><rect x="314" y="88" width="10" height="44" fill="#F2EFE9"/><rect x="330" y="101" width="10" height="31" fill="#F2EFE9"/><rect x="346" y="98" width="10" height="34" fill="#F2EFE9"/><rect x="362" y="116" width="10" height="16" fill="#F2C230"/><rect x="378" y="126" width="10" height="6" fill="#F2EFE9"/><rect x="394" y="93" width="10" height="39" fill="#F2EFE9"/><rect x="410" y="122" width="10" height="10" fill="#F2EFE9"/><rect x="426" y="123" width="10" height="9" fill="#7C4DFF"/><rect x="442" y="124" width="10" height="8" fill="#F2EFE9"/><rect x="458" y="114" width="10" height="18" fill="#F2EFE9"/><rect x="474" y="111" width="10" height="21" fill="#F2C230"/><rect x="490" y="88" width="10" height="44" fill="#F2EFE9"/><rect x="506" y="125" width="10" height="7" fill="#F2EFE9"/><rect x="522" y="97" width="10" height="35" fill="#F2EFE9"/><rect x="538" y="106" width="10" height="26" fill="#F2EFE9"/><rect x="554" y="98" width="10" height="34" fill="#F2EFE9"/><rect x="570" y="89" width="10" height="43" fill="#E8502F"/><rect x="586" y="114" width="10" height="18" fill="#F2C230"/><rect x="602" y="93" width="10" height="39" fill="#F2EFE9"/><rect x="618" y="112" width="10" height="20" fill="#F2EFE9"/><rect x="634" y="108" width="10" height="24" fill="#F2EFE9"/><rect x="650" y="95" width="10" height="37" fill="#F2EFE9"/><rect x="666" y="126" width="10" height="6" fill="#F2EFE9"/><rect x="682" y="121" width="10" height="11" fill="#F2EFE9"/><rect x="698" y="97" width="10" height="35" fill="#F2C230"/><rect x="714" y="109" width="10" height="23" fill="#F2EFE9"/><rect x="730" y="100" width="10" height="32" fill="#7C4DFF"/><rect x="746" y="91" width="10" height="41" fill="#F2EFE9"/><rect x="762" y="121" width="10" height="11" fill="#F2EFE9"/><rect x="778" y="110" width="10" height="22" fill="#F2EFE9"/><rect x="794" y="106" width="10" height="26" fill="#F2EFE9"/><rect x="810" y="112" width="10" height="20" fill="#F2C230"/><rect x="826" y="94" width="10" height="38" fill="#F2EFE9"/><rect x="842" y="108" width="10" height="24" fill="#F2EFE9"/><animate attributeName="opacity" values="1;0" keyTimes="0;0.5" dur="0.9s" calcMode="discrete" repeatCount="indefinite"/></g>
<g opacity="0"><rect x="26" y="112" width="10" height="20" fill="#F2C230"/><rect x="42" y="103" width="10" height="29" fill="#F2EFE9"/><rect x="58" y="93" width="10" height="39" fill="#F2EFE9"/><rect x="74" y="88" width="10" height="44" fill="#F2EFE9"/><rect x="90" y="105" width="10" height="27" fill="#F2EFE9"/><rect x="106" y="91" width="10" height="41" fill="#F2EFE9"/><rect x="122" y="125" width="10" height="7" fill="#F2EFE9"/><rect x="138" y="102" width="10" height="30" fill="#F2C230"/><rect x="154" y="99" width="10" height="33" fill="#F2EFE9"/><rect x="170" y="98" width="10" height="34" fill="#F2EFE9"/><rect x="186" y="126" width="10" height="6" fill="#F2EFE9"/><rect x="202" y="126" width="10" height="6" fill="#F2EFE9"/><rect x="218" y="85" width="10" height="47" fill="#F2EFE9"/><rect x="234" y="100" width="10" height="32" fill="#F2EFE9"/><rect x="250" y="126" width="10" height="6" fill="#F2C230"/><rect x="266" y="126" width="10" height="6" fill="#F2EFE9"/><rect x="282" y="100" width="10" height="32" fill="#F2EFE9"/><rect x="298" y="126" width="10" height="6" fill="#E8502F"/><rect x="314" y="87" width="10" height="45" fill="#F2EFE9"/><rect x="330" y="103" width="10" height="29" fill="#F2EFE9"/><rect x="346" y="90" width="10" height="42" fill="#F2EFE9"/><rect x="362" y="118" width="10" height="14" fill="#F2C230"/><rect x="378" y="126" width="10" height="6" fill="#F2EFE9"/><rect x="394" y="105" width="10" height="27" fill="#F2EFE9"/><rect x="410" y="118" width="10" height="14" fill="#F2EFE9"/><rect x="426" y="117" width="10" height="15" fill="#7C4DFF"/><rect x="442" y="126" width="10" height="6" fill="#F2EFE9"/><rect x="458" y="104" width="10" height="28" fill="#F2EFE9"/><rect x="474" y="104" width="10" height="28" fill="#F2C230"/><rect x="490" y="94" width="10" height="38" fill="#F2EFE9"/><rect x="506" y="126" width="10" height="6" fill="#F2EFE9"/><rect x="522" y="109" width="10" height="23" fill="#F2EFE9"/><rect x="538" y="111" width="10" height="21" fill="#F2EFE9"/><rect x="554" y="102" width="10" height="30" fill="#F2EFE9"/><rect x="570" y="103" width="10" height="29" fill="#E8502F"/><rect x="586" y="115" width="10" height="17" fill="#F2C230"/><rect x="602" y="83" width="10" height="49" fill="#F2EFE9"/><rect x="618" y="123" width="10" height="9" fill="#F2EFE9"/><rect x="634" y="118" width="10" height="14" fill="#F2EFE9"/><rect x="650" y="102" width="10" height="30" fill="#F2EFE9"/><rect x="666" y="118" width="10" height="14" fill="#F2EFE9"/><rect x="682" y="126" width="10" height="6" fill="#F2EFE9"/><rect x="698" y="111" width="10" height="21" fill="#F2C230"/><rect x="714" y="122" width="10" height="10" fill="#F2EFE9"/><rect x="730" y="100" width="10" height="32" fill="#7C4DFF"/><rect x="746" y="80" width="10" height="52" fill="#F2EFE9"/><rect x="762" y="120" width="10" height="12" fill="#F2EFE9"/><rect x="778" y="119" width="10" height="13" fill="#F2EFE9"/><rect x="794" y="99" width="10" height="33" fill="#F2EFE9"/><rect x="810" y="109" width="10" height="23" fill="#F2C230"/><rect x="826" y="102" width="10" height="30" fill="#F2EFE9"/><rect x="842" y="108" width="10" height="24" fill="#F2EFE9"/><animate attributeName="opacity" values="0;1" keyTimes="0;0.5" dur="0.9s" calcMode="discrete" repeatCount="indefinite"/></g>
</svg>