<svg xmlns="http://www.w3.org/2000/svg" viewBox="0 0 580 150" width="580" height="150">
<rect width="580" height="150" fill="#0F0F11"/>
<g opacity="0.10">
<rect x="0" y="0" width="580" height="2" fill="#000000"/>
<rect x="0" y="8" width="580" height="2" fill="#000000"/>
<rect x="0" y="16" width="580" height="2" fill="#000000"/>
<rect x="0" y="24" width="580" height="2" fill="#000000"/>
<rect x="0" y="32" width="580" height="2" fill="#000000"/>
<rect x="0" y="40" width="580" height="2" fill="#000000"/>
<rect x="0" y="48" width="580" height="2" fill="#000000"/>
<rect x="0" y="56" width="580" height="2" fill="#000000"/>
<rect x="0" y="64" width="580" height="2" fill="#000000"/>
<rect x="0" y="72" width="580" height="2" fill="#000000"/>
<rect x="0" y="80" width="580" height="2" fill="#000000"/>
<rect x="0" y="88" width="580" height="2" fill="#000000"/>
<rect x="0" y="96" width="580" height="2" fill="#000000"/>
<rect x="0" y="104" width="580" height="2" fill="#000000"/>
<rect x="0" y="112" width="580" height="2" fill="#000000"/>
<rect x="0" y="120" width="580" height="2" fill="#000000"/>
<rect x="0" y="128" width="580" height="2" fill="#000000"/>
<rect x="0" y="136" width="580" height="2" fill="#000000"/>
<rect x="0" y="144" width="580" height="2" fill="#000000"/>
</g>
<rect x="1" y="1" width="578" height="148" fill="none" stroke="#2B2B30" stroke-width="2"/>
<rect x="6" y="6" width="14" height="3" fill="#E8502F"/>
<rect x="6" y="6" width="3" height="14" fill="#E8502F"/>
<rect x="560" y="6" width="14" height="3" fill="#E8502F"/>
<rect x="571" y="6" width="3" height="14" fill="#E8502F"/>
<rect x="6" y="141" width="14" height="3" fill="#E8502F"/>
<rect x="6" y="130" width="3" height="14" fill="#E8502F"/>
<rect x="560" y="141" width="14" height="3" fill="#E8502F"/>
<rect x="571" y="130" width="3" height="14" fill="#E8502F"/>
<rect x="22" y="20" width="3" height="3" fill="#F2EFE9"/><rect x="34" y="20" width="3" height="3" fill="#F2EFE9"/><rect x="22" y="23" width="3" height="3" fill="#F2EFE9"/><rect x="31" y="23" width="3" height="3" fill="#F2EFE9"/><rect x="22" y="26" width="3" height="3" fill="#F2EFE9"/><rect x="28" y="26" width="3" height="3" fill="#F2EFE9"/><rect x="22" y="29" width="6" height="3" fill="#F2EFE9"/><rect x="22" y="32" width="3" height="3" fill="#F2EFE9"/><rect x="28" y="32" width="3" height="3" fill="#F2EFE9"/><rect x="22" y="35" width="3" height="3" fill="#F2EFE9"/><rect x="31" y="35" width="3" height="3" fill="#F2EFE9"/><rect x="22" y="38" width="3" height="3" fill="#F2EFE9"/><rect x="34" y="38" width="3" height="3" fill="#F2EFE9"/><rect x="43" y="20" width="9" height="3" fill="#F2EFE9"/><rect x="40" y="23" width="3" height="3" fill="#F2EFE9"/><rect x="52" y="23" width="3" height="3" fill="#F2EFE9"/><rect x="40" y="26" width="3" height="3" fill="#F2EFE9"/><rect x="52" y="26" width="3" height="3" fill="#F2EFE9"/><rect x="40" y="29" width="3" height="3" fill="#F2EFE9"/><rect x="52" y="29" width="3" height="3" fill="#F2EFE9"/><rect x="40" y="32" width="3" height="3" fill="#F2EFE9"/><rect x="52" y="32" width="3" height="3" fill="#F2EFE9"/><rect x="40" y="35" width="3" height="3" fill="#F2EFE9"/><rect x="52" y="35" width="3" height="3" fill="#F2EFE9"/><rect x="43" y="38" width="9" height="3" fill="#F2EFE9"/><rect x="61" y="20" width="12" height="3" fill="#F2EFE9"/><rect x="58" y="23" width="3" height="3" fill="#F2EFE9"/><rect x="58" y="26" width="3" height="3" fill="#F2EFE9"/><rect x="58" y="29" width="3" height="3" fill="#F2EFE9"/><rect x="64" y="29" width="9" height="3" fill="#F2EFE9"/><rect x="58" y="32" width="3" height="3" fill="#F2EFE9"/><rect x="70" y="32" width="3" height="3" fill="#F2EFE9"/><rect x="58" y="35" width="3" height="3" fill="#F2EFE9"/><rect x="70" y="35" width="3" height="3" fill="#F2EFE9"/><rect x="61" y="38" width="12" height="3" fill="#F2EFE9"/><rect x="76" y="20" width="3" height="3" fill="#F2EFE9"/><rect x="88" y="20" width="3" height="3" fill="#F2EFE9"/><rect x="76" y="23" width="6" height="3" fill="#F2EFE9"/><rect x="88" y="23" width="3" height="3" fill="#F2EFE9"/><rect x="76" y="26" width="6" height="3" fill="#F2EFE9"/><rect x="88" y="26" width="3" height="3" fill="#F2EFE9"/><rect x="76" y="29" width="3" height="3" fill="#F2EFE9"/><rect x="82" y="29" width="3" height="3" fill="#F2EFE9"/><rect x="88" y="29" width="3" height="3" fill="#F2EFE9"/><rect x="76" y="32" width="3" height="3" fill="#F2EFE9"/><rect x="85" y="32" width="6" height="3" fill="#F2EFE9"/><rect x="76" y="35" width="3" height="3" fill="#F2EFE9"/><rect x="85" y="35" width="6" height="3" fill="#F2EFE9"/><rect x="76" y="38" width="3" height="3" fill="#F2EFE9"/><rect x="88" y="38" width="3" height="3" fill="#F2EFE9"/><rect x="97" y="20" width="9" height="3" fill="#F2EFE9"/><rect x="100" y="23" width="3" height="3" fill="#F2EFE9"/><rect x="100" y="26" width="3" height="3" fill="#F2EFE9"/><rect x="100" y="29" width="3" height="3" fill="#F2EFE9"/><rect x="100" y="32" width="3" height="3" fill="#F2EFE9"/><rect x="100" y="35" width="3" height="3" fill="#F2EFE9"/><rect x="97" y="38" width="9" height="3" fill="#F2EFE9"/><rect x="112" y="20" width="15" height="3" fill="#F2EFE9"/><rect x="118" y="23" width="3" height="3" fill="#F2EFE9"/><rect x="118" y="26" width="3" height="3" fill="#F2EFE9"/><rect x="118" y="29" width="3" height="3" fill="#F2EFE9"/><rect x="118" y="32" width="3" height="3" fill="#F2EFE9"/><rect x="118" y="35" width="3" height="3" fill="#F2EFE9"/><rect x="118" y="38" width="3" height="3" fill="#F2EFE9"/><rect x="136" y="20" width="3" height="3" fill="#F2EFE9"/><rect x="133" y="23" width="6" height="3" fill="#F2EFE9"/><rect x="136" y="26" width="3" height="3" fill="#F2EFE9"/><rect x="136" y="29" width="3" height="3" fill="#F2EFE9"/><rect x="136" y="32" width="3" height="3" fill="#F2EFE9"/><rect x="136" y="35" width="3" height="3" fill="#F2EFE9"/><rect x="133" y="38" width="9" height="3" fill="#F2EFE9"/><rect x="148" y="20" width="3" height="3" fill="#F2EFE9"/><rect x="160" y="20" width="3" height="3" fill="#F2EFE9"/><rect x="148" y="23" width="3" height="3" fill="#F2EFE9"/><rect x="160" y="23" width="3" height="3" fill="#F2EFE9"/><rect x="148" y="26" width="3" height="3" fill="#F2EFE9"/><rect x="160" y="26" width="3" height="3" fill="#F2EFE9"/><rect x="148" y="29" width="3" height="3" fill="#F2EFE9"/><rect x="160" y="29" width="3" height="3" fill="#F2EFE9"/><rect x="148" y="32" width="3" height="3" fill="#F2EFE9"/><rect x="160" y="32" width="3" height="3" fill="#F2EFE9"/><rect x="151" y="35" width="3" height="3" fill="#F2EFE9"/><rect x="157" y="35" width="3" height="3" fill="#F2EFE9"/><rect x="154" y="38" width="3" height="3" fill="#F2EFE9"/><rect x="169" y="29" width="9" height="3" fill="#F2EFE9"/><rect x="187" y="20" width="9" height="3" fill="#F2EFE9"/><rect x="190" y="23" width="3" height="3" fill="#F2EFE9"/><rect x="190" y="26" width="3" height="3" fill="#F2EFE9"/><rect x="190" y="29" width="3" height="3" fill="#F2EFE9"/><rect x="190" y="32" width="3" height="3" fill="#F2EFE9"/><rect x="190" y="35" width="3" height="3" fill="#F2EFE9"/><rect x="187" y="38" width="9" height="3" fill="#F2EFE9"/><rect x="202" y="20" width="3" height="3" fill="#F2EFE9"/><rect x="214" y="20" width="3" height="3" fill="#F2EFE9"/><rect x="202" y="23" width="6" height="3" fill="#F2EFE9"/><rect x="214" y="23" width="3" height="3" fill="#F2EFE9"/><rect x="202" y="26" width="6" height="3" fill="#F2EFE9"/><rect x="214" y="26" width="3" height="3" fill="#F2EFE9"/><rect x="202" y="29" width="3" height="3" fill="#F2EFE9"/><rect x="208" y="29" width="3" height="3" fill="#F2EFE9"/><rect x="214" y="29" width="3" height="3" fill="#F2EFE9"/><rect x="202" y="32" width="3" height="3" fill="#F2EFE9"/><rect x="211" y="32" width="6" height="3" fill="#F2EFE9"/><rect x="202" y="35" width="3" height="3" fill="#F2EFE9"/><rect x="211" y="35" width="6" height="3" fill="#F2EFE9"/><rect x="202" y="38" width="3" height="3" fill="#F2EFE9"/><rect x="214" y="38" width="3" height="3" fill="#F2EFE9"/><rect x="220" y="20" width="15" height="3" fill="#F2EFE9"/><rect x="226" y="23" width="3" height="3" fill="#F2EFE9"/><rect x="226" y="26" width="3" height="3" fill="#F2EFE9"/><rect x="226" y="29" width="3" height="3" fill="#F2EFE9"/><rect x="226" y="32" width="3" height="3" fill="#F2EFE9"/><rect x="226" y="35" width="3" height="3" fill="#F2EFE9"/><rect x="226" y="38" width="3" height="3" fill="#F2EFE9"/><rect x="238" y="20" width="15" height="3" fill="#F2EFE9"/><rect x="238" y="23" width="3" height="3" fill="#F2EFE9"/><rect x="238" y="26" width="3" height="3" fill="#F2EFE9"/><rect x="238" y="29" width="12" height="3" fill="#F2EFE9"/><rect x="238" y="32" width="3" height="3" fill="#F2EFE9"/><rect x="238" y="35" width="3" height="3" fill="#F2EFE9"/><rect x="238" y="38" width="15" height="3" fill="#F2EFE9"/><rect x="256" y="20" width="3" height="3" fill="#F2EFE9"/><rect x="256" y="23" width="3" height="3" fill="#F2EFE9"/><rect x="256" y="26" width="3" height="3" fill="#F2EFE9"/><rect x="256" y="29" width="3" height="3" fill="#F2EFE9"/><rect x="256" y="32" width="3" height="3" fill="#F2EFE9"/><rect x="256" y="35" width="3" height="3" fill="#F2EFE9"/><rect x="256" y="38" width="15" height="3" fill="#F2EFE9"/><rect x="274" y="20" width="3" height="3" fill="#F2EFE9"/><rect x="274" y="23" width="3" height="3" fill="#F2EFE9"/><rect x="274" y="26" width="3" height="3" fill="#F2EFE9"/><rect x="274" y="29" width="3" height="3" fill="#F2EFE9"/><rect x="274" y="32" width="3" height="3" fill="#F2EFE9"/><rect x="274" y="35" width="3" height="3" fill="#F2EFE9"/><rect x="274" y="38" width="15" height="3" fill="#F2EFE9"/><rect x="295" y="20" width="9" height="3" fill="#F2EFE9"/><rect x="298" y="23" width="3" height="3" fill="#F2EFE9"/><rect x="298" y="26" width="3" height="3" fill="#F2EFE9"/><rect x="298" y="29" width="3" height="3" fill="#F2EFE9"/><rect x="298" y="32" width="3" height="3" fill="#F2EFE9"/><rect x="298" y="35" width="3" height="3" fill="#F2EFE9"/><rect x="295" y="38" width="9" height="3" fill="#F2EFE9"/><rect x="313" y="20" width="12" height="3" fill="#F2EFE9"/><rect x="310" y="23" width="3" height="3" fill="#F2EFE9"/><rect x="310" y="26" width="3" height="3" fill="#F2EFE9"/><rect x="310" y="29" width="3" height="3" fill="#F2EFE9"/><rect x="316" y="29" width="9" height="3" fill="#F2EFE9"/><rect x="310" y="32" width="3" height="3" fill="#F2EFE9"/><rect x="322" y="32" width="3" height="3" fill="#F2EFE9"/><rect x="310" y="35" width="3" height="3" fill="#F2EFE9"/><rect x="322" y="35" width="3" height="3" fill="#F2EFE9"/><rect x="313" y="38" width="12" height="3" fill="#F2EFE9"/><rect x="328" y="20" width="15" height="3" fill="#F2EFE9"/><rect x="328" y="23" width="3" height="3" fill="#F2EFE9"/><rect x="328" y="26" width="3" height="3" fill="#F2EFE9"/><rect x="328" y="29" width="12" height="3" fill="#F2EFE9"/><rect x="328" y="32" width="3" height="3" fill="#F2EFE9"/><rect x="328" y="35" width="3" height="3" fill="#F2EFE9"/><rect x="328" y="38" width="15" height="3" fill="#F2EFE9"/><rect x="346" y="20" width="3" height="3" fill="#F2EFE9"/><rect x="358" y="20" width="3" height="3" fill="#F2EFE9"/><rect x="346" y="23" width="6" height="3" fill="#F2EFE9"/><rect x="358" y="23" width="3" height="3" fill="#F2EFE9"/><rect x="346" y="26" width="6" height="3" fill="#F2EFE9"/><rect x="358" y="26" width="3" height="3" fill="#F2EFE9"/><rect x="346" y="29" width="3" height="3" fill="#F2EFE9"/><rect x="352" y="29" width="3" height="3" fill="#F2EFE9"/><rect x="358" y="29" width="3" height="3" fill="#F2EFE9"/><rect x="346" y="32" width="3" height="3" fill="#F2EFE9"/><rect x="355" y="32" width="6" height="3" fill="#F2EFE9"/><rect x="346" y="35" width="3" height="3" fill="#F2EFE9"/><rect x="355" y="35" width="6" height="3" fill="#F2EFE9"/><rect x="346" y="38" width="3" height="3" fill="#F2EFE9"/><rect x="358" y="38" width="3" height="3" fill="#F2EFE9"/><rect x="367" y="20" width="12" height="3" fill="#F2EFE9"/><rect x="364" y="23" width="3" height="3" fill="#F2EFE9"/><rect x="364" y="26" width="3" height="3" fill="#F2EFE9"/><rect x="364" y="29" width="3" height="3" fill="#F2EFE9"/><rect x="364" y="32" width="3" height="3" fill="#F2EFE9"/><rect x="364" y="35" width="3" height="3" fill="#F2EFE9"/><rect x="367" y="38" width="12" height="3" fill="#F2EFE9"/><rect x="382" y="20" width="15" height="3" fill="#F2EFE9"/><rect x="382" y="23" width="3" height="3" fill="#F2EFE9"/><rect x="382" y="26" width="3" height="3" fill="#F2EFE9"/><rect x="382" y="29" width="12" height="3" fill="#F2EFE9"/><rect x="382" y="32" width="3" height="3" fill="#F2EFE9"/><rect x="382" y="35" width="3" height="3" fill="#F2EFE9"/><rect x="382" y="38" width="15" height="3" fill="#F2EFE9"/><rect x="403" y="29" width="9" height="3" fill="#F2EFE9"/><rect x="421" y="20" width="12" height="3" fill="#F2EFE9"/><rect x="418" y="23" width="3" height="3" fill="#F2EFE9"/><rect x="418" y="26" width="3" height="3" fill="#F2EFE9"/><rect x="421" y="29" width="9" height="3" fill="#F2EFE9"/><rect x="430" y="32" width="3" height="3" fill="#F2EFE9"/><rect x="430" y="35" width="3" height="3" fill="#F2EFE9"/><rect x="418" y="38" width="12" height="3" fill="#F2EFE9"/><rect x="436" y="20" width="3" height="3" fill="#F2EFE9"/><rect x="448" y="20" width="3" height="3" fill="#F2EFE9"/><rect x="439" y="23" width="3" height="3" fill="#F2EFE9"/><rect x="445" y="23" width="3" height="3" fill="#F2EFE9"/><rect x="442" y="26" width="3" height="3" fill="#F2EFE9"/><rect x="442" y="29" width="3" height="3" fill="#F2EFE9"/><rect x="442" y="32" width="3" height="3" fill="#F2EFE9"/><rect x="442" y="35" width="3" height="3" fill="#F2EFE9"/><rect x="442" y="38" width="3" height="3" fill="#F2EFE9"/><rect x="457" y="20" width="12" height="3" fill="#F2EFE9"/><rect x="454" y="23" width="3" height="3" fill="#F2EFE9"/><rect x="454" y="26" width="3" height="3" fill="#F2EFE9"/><rect x="457" y="29" width="9" height="3" fill="#F2EFE9"/><rect x="466" y="32" width="3" height="3" fill="#F2EFE9"/><rect x="466" y="35" width="3" height="3" fill="#F2EFE9"/><rect x="454" y="38" width="12" height="3" fill="#F2EFE9"/><rect x="472" y="20" width="15" height="3" fill="#F2EFE9"/><rect x="478" y="23" width="3" height="3" fill="#F2EFE9"/><rect x="478" y="26" width="3" height="3" fill="#F2EFE9"/><rect x="478" y="29" width="3" height="3" fill="#F2EFE9"/><rect x="478" y="32" width="3" height="3" fill="#F2EFE9"/><rect x="478" y="35" width="3" height="3" fill="#F2EFE9"/><rect x="478" y="38" width="3" height="3" fill="#F2EFE9"/><rect x="490" y="20" width="15" height="3" fill="#F2EFE9"/><rect x="490" y="23" width="3" height="3" fill="#F2EFE9"/><rect x="490" y="26" width="3" height="3" fill="#F2EFE9"/><rect x="490" y="29" width="12" height="3" fill="#F2EFE9"/><rect x="490" y="32" width="3" height="3" fill="#F2EFE9"/><rect x="490" y="35" width="3" height="3" fill="#F2EFE9"/><rect x="490" y="38" width="15" height="3" fill="#F2EFE9"/><rect x="508" y="20" width="3" height="3" fill="#F2EFE9"/><rect x="520" y="20" width="3" height="3" fill="#F2EFE9"/><rect x="508" y="23" width="6" height="3" fill="#F2EFE9"/><rect x="517" y="23" width="6" height="3" fill="#F2EFE9"/><rect x="508" y="26" width="3" height="3" fill="#F2EFE9"/><rect x="514" y="26" width="3" height="3" fill="#F2EFE9"/><rect x="520" y="26" width="3" height="3" fill="#F2EFE9"/><rect x="508" y="29" width="3" height="3" fill="#F2EFE9"/><rect x="514" y="29" width="3" height="3" fill="#F2EFE9"/><rect x="520" y="29" width="3" height="3" fill="#F2EFE9"/><rect x="508" y="32" width="3" height="3" fill="#F2EFE9"/><rect x="520" y="32" width="3" height="3" fill="#F2EFE9"/><rect x="508" y="35" width="3" height="3" fill="#F2EFE9"/><rect x="520" y="35" width="3" height="3" fill="#F2EFE9"/><rect x="508" y="38" width="3" height="3" fill="#F2EFE9"/><rect x="520" y="38" width="3" height="3" fill="#F2EFE9"/><rect x="529" y="20" width="12" height="3" fill="#F2EFE9"/><rect x="526" y="23" width="3" height="3" fill="#F2EFE9"/><rect x="526" y="26" width="3" height="3" fill="#F2EFE9"/><rect x="529" y="29" width="9" height="3" fill="#F2EFE9"/><rect x="538" y="32" width="3" height="3" fill="#F2EFE9"/><rect x="538" y="35" width="3" height="3" fill="#F2EFE9"/><rect x="526" y="38" width="12" height="3" fill="#F2EFE9"/>
<rect x="433" y="22" width="15" height="3" fill="#F2C230"/><rect x="439" y="25" width="3" height="3" fill="#F2C230"/><rect x="439" y="28" width="3" height="3" fill="#F2C230"/><rect x="439" y="31" width="3" height="3" fill="#F2C230"/><rect x="439" y="34" width="3" height="3" fill="#F2C230"/><rect x="439" y="37" width="3" height="3" fill="#F2C230"/><rect x="439" y="40" width="3" height="3" fill="#F2C230"/><rect x="454" y="22" width="9" height="3" fill="#F2C230"/><rect x="451" y="25" width="3" height="3" fill="#F2C230"/><rect x="463" y="25" width="3" height="3" fill="#F2C230"/><rect x="451" y="28" width="3" height="3" fill="#F2C230"/><rect x="463" y="28" width="3" height="3" fill="#F2C230"/><rect x="451" y="31" width="3" height="3" fill="#F2C230"/><rect x="463" y="31" width="3" height="3" fill="#F2C230"/><rect x="451" y="34" width="3" height="3" fill="#F2C230"/><rect x="463" y="34" width="3" height="3" fill="#F2C230"/><rect x="451" y="37" width="3" height="3" fill="#F2C230"/><rect x="463" y="37" width="3" height="3" fill="#F2C230"/><rect x="454" y="40" width="9" height="3" fill="#F2C230"/><rect x="469" y="22" width="12" height="3" fill="#F2C230"/><rect x="469" y="25" width="3" height="3" fill="#F2C230"/><rect x="481" y="25" width="3" height="3" fill="#F2C230"/><rect x="469" y="28" width="3" height="3" fill="#F2C230"/><rect x="481" y="28" width="3" height="3" fill="#F2C230"/><rect x="469" y="31" width="3" height="3" fill="#F2C230"/><rect x="481" y="31" width="3" height="3" fill="#F2C230"/><rect x="469" y="34" width="3" height="3" fill="#F2C230"/><rect x="481" y="34" width="3" height="3" fill="#F2C230"/><rect x="469" y="37" width="3" height="3" fill="#F2C230"/><rect x="481" y="37" width="3" height="3" fill="#F2C230"/><rect x="469" y="40" width="12" height="3" fill="#F2C230"/><rect x="490" y="22" width="9" height="3" fill="#F2C230"/><rect x="487" y="25" width="3" height="3" fill="#F2C230"/><rect x="499" y="25" width="3" height="3" fill="#F2C230"/><rect x="487" y="28" width="3" height="3" fill="#F2C230"/><rect x="499" y="28" width="3" height="3" fill="#F2C230"/><rect x="487" y="31" width="15" height="3" fill="#F2C230"/><rect x="487" y="34" width="3" height="3" fill="#F2C230"/><rect x="499" y="34" width="3" height="3" fill="#F2C230"/><rect x="487" y="37" width="3" height="3" fill="#F2C230"/><rect x="499" y="37" width="3" height="3" fill="#F2C230"/><rect x="487" y="40" width="3" height="3" fill="#F2C230"/><rect x="499" y="40" width="3" height="3" fill="#F2C230"/><rect x="505" y="22" width="3" height="3" fill="#F2C230"/><rect x="517" y="22" width="3" height="3" fill="#F2C230"/><rect x="508" y="25" width="3" height="3" fill="#F2C230"/><rect x="514" y="25" width="3" height="3" fill="#F2C230"/><rect x="511" y="28" width="3" height="3" fill="#F2C230"/><rect x="511" y="31" width="3" height="3" fill="#F2C230"/><rect x="511" y="34" width="3" height="3" fill="#F2C230"/><rect x="511" y="37" width="3" height="3" fill="#F2C230"/><rect x="511" y="40" width="3" height="3" fill="#F2C230"/>
<g><rect x="543" y="10" width="3" height="3" fill="#E8502F"/><rect x="543" y="13" width="3" height="3" fill="#E8502F"/><rect x="546" y="13" width="3" height="3" fill="#E8502F"/><rect x="540" y="16" width="3" height="3" fill="#E8502F"/><rect x="543" y="16" width="3" height="3" fill="#E8502F"/><rect x="546" y="16" width="3" height="3" fill="#F2C230"/><rect x="537" y="19" width="3" height="3" fill="#E8502F"/><rect x="540" y="19" width="3" height="3" fill="#E8502F"/><rect x="543" y="19" width="3" height="3" fill="#F2C230"/><rect x="546" y="19" width="3" height="3" fill="#F2C230"/><rect x="537" y="22" width="3" height="3" fill="#E8502F"/><rect x="540" y="22" width="3" height="3" fill="#F2C230"/><rect x="543" y="22" width="3" height="3" fill="#F2C230"/><rect x="546" y="22" width="3" height="3" fill="#F2C230"/><rect x="549" y="22" width="3" height="3" fill="#E8502F"/><rect x="534" y="25" width="3" height="3" fill="#E8502F"/><rect x="537" y="25" width="3" height="3" fill="#E8502F"/><rect x="540" y="25" width="3" height="3" fill="#F2C230"/><rect x="543" y="25" width="3" height="3" fill="#F2C230"/><rect x="546" y="25" width="3" height="3" fill="#F2C230"/><rect x="549" y="25" width="3" height="3" fill="#E8502F"/><rect x="534" y="28" width="3" height="3" fill="#E8502F"/><rect x="537" y="28" width="3" height="3" fill="#F2C230"/><rect x="540" y="28" width="3" height="3" fill="#F2C230"/><rect x="543" y="28" width="3" height="3" fill="#F2C230"/><rect x="546" y="28" width="3" height="3" fill="#F2C230"/><rect x="549" y="28" width="3" height="3" fill="#E8502F"/><rect x="537" y="31" width="3" height="3" fill="#E8502F"/><rect x="540" y="31" width="3" height="3" fill="#E8502F"/><rect x="543" y="31" width="3" height="3" fill="#E8502F"/><rect x="546" y="31" width="3" height="3" fill="#E8502F"/><animate attributeName="opacity" values="1;0" keyTimes="0;0.5" dur="0.7s" calcMode="discrete" repeatCount="indefinite"/></g><g opacity="0"><rect x="540" y="10" width="3" height="3" fill="#E8502F"/><rect x="540" y="13" width="3" height="3" fill="#E8502F"/><rect x="543" y="13" width="3" height="3" fill="#E8502F"/><rect x="540" y="16" width="3" height="3" fill="#E8502F"/><rect x="543" y="16" width="3" height="3" fill="#F2C230"/><rect x="546" y="16" width="3" height="3" fill="#E8502F"/><rect x="537" y="19" width="3" height="3" fill="#E8502F"/><rect x="540" y="19" width="3" height="3" fill="#F2C230"/><rect x="543" y="19" width="3" height="3" fill="#F2C230"/><rect x="546" y="19" width="3" height="3" fill="#E8502F"/><rect x="537" y="22" width="3" height="3" fill="#E8502F"/><rect x="540" y="22" width="3" height="3" fill="#F2C230"/><rect x="543" y="22" width="3" height="3" fill="#F2C230"/><rect x="546" y="22" width="3" height="3" fill="#F2C230"/><rect x="549" y="22" width="3" height="3" fill="#E8502F"/><rect x="534" y="25" width="3" height="3" fill="#E8502F"/><rect x="537" y="25" width="3" height="3" fill="#F2C230"/><rect x="540" y="25" width="3" height="3" fill="#F2C230"/><rect x="543" y="25" width="3" height="3" fill="#F2C230"/><rect x="546" y="25" width="3" height="3" fill="#F2C230"/><rect x="549" y="25" width="3" height="3" fill="#E8502F"/><rect x="534" y="28" width="3" height="3" fill="#E8502F"/><rect x="537" y="28" width="3" height="3" fill="#F2C230"/><rect x="540" y="28" width="3" height="3" fill="#F2C230"/><rect x="543" y="28" width="3" height="3" fill="#F2C230"/><rect x="546" y="28" width="3" height="3" fill="#F2C230"/><rect x="549" y="28" width="3" height="3" fill="#E8502F"/><rect x="537" y="31" width="3" height="3" fill="#E8502F"/><rect x="540" y="31" width="3" height="3" fill="#E8502F"/><rect x="543" y="31" width="3" height="3" fill="#E8502F"/><rect x="546" y="31" width="3" height="3" fill="#E8502F"/><animate attributeName="opacity" values="0;1" keyTimes="0;0.5" dur="0.7s" calcMode="discrete" repeatCount="indefinite"/></g>
<g opacity="0.72"><rect x="22" y="64" width="2" height="2" fill="#F2EFE9"/><rect x="30" y="64" width="2" height="2" fill="#F2EFE9"/><rect x="22" y="66" width="4" height="2" fill="#F2EFE9"/><rect x="30" y="66" width="2" height="2" fill="#F2EFE9"/><rect x="22" y="68" width="4" height="2" fill="#F2EFE9"/><rect x="30" y="68" width="2" height="2" fill="#F2EFE9"/><rect x="22" y="70" width="2" height="2" fill="#F2EFE9"/><rect x="26" y="70" width="2" height="2" fill="#F2EFE9"/><rect x="30" y="70" width="2" height="2" fill="#F2EFE9"/><rect x="22" y="72" width="2" height="2" fill="#F2EFE9"/><rect x="28" y="72" width="4" height="2" fill="#F2EFE9"/><rect x="22" y="74" width="2" height="2" fill="#F2EFE9"/><rect x="28" y="74" width="4" height="2" fill="#F2EFE9"/><rect x="22" y="76" width="2" height="2" fill="#F2EFE9"/><rect x="30" y="76" width="2" height="2" fill="#F2EFE9"/><rect x="36" y="64" width="6" height="2" fill="#F2EFE9"/><rect x="34" y="66" width="2" height="2" fill="#F2EFE9"/><rect x="42" y="66" width="2" height="2" fill="#F2EFE9"/><rect x="34" y="68" width="2" height="2" fill="#F2EFE9"/><rect x="42" y="68" width="2" height="2" fill="#F2EFE9"/><rect x="34" y="70" width="2" height="2" fill="#F2EFE9"/><rect x="42" y="70" width="2" height="2" fill="#F2EFE9"/><rect x="34" y="72" width="2" height="2" fill="#F2EFE9"/><rect x="42" y="72" width="2" height="2" fill="#F2EFE9"/><rect x="34" y="74" width="2" height="2" fill="#F2EFE9"/><rect x="42" y="74" width="2" height="2" fill="#F2EFE9"/><rect x="36" y="76" width="6" height="2" fill="#F2EFE9"/><rect x="58" y="64" width="8" height="2" fill="#F2EFE9"/><rect x="58" y="66" width="2" height="2" fill="#F2EFE9"/><rect x="66" y="66" width="2" height="2" fill="#F2EFE9"/><rect x="58" y="68" width="2" height="2" fill="#F2EFE9"/><rect x="66" y="68" width="2" height="2" fill="#F2EFE9"/><rect x="58" y="70" width="2" height="2" fill="#F2EFE9"/><rect x="66" y="70" width="2" height="2" fill="#F2EFE9"/><rect x="58" y="72" width="2" height="2" fill="#F2EFE9"/><rect x="66" y="72" width="2" height="2" fill="#F2EFE9"/><rect x="58" y="74" width="2" height="2" fill="#F2EFE9"/><rect x="66" y="74" width="2" height="2" fill="#F2EFE9"/><rect x="58" y="76" width="8" height="2" fill="#F2EFE9"/><rect x="70" y="64" width="10" height="2" fill="#F2EFE9"/><rect x="70" y="66" width="2" height="2" fill="#F2EFE9"/><rect x="70" y="68" width="2" height="2" fill="#F2EFE9"/><rect x="70" y="70" width="8" height="2" fill="#F2EFE9"/><rect x="70" y="72" width="2" height="2" fill="#F2EFE9"/><rect x="70" y="74" width="2" height="2" fill="#F2EFE9"/><rect x="70" y="76" width="10" height="2" fill="#F2EFE9"/><rect x="84" y="64" width="8" height="2" fill="#F2EFE9"/><rect x="82" y="66" width="2" height="2" fill="#F2EFE9"/><rect x="82" y="68" width="2" height="2" fill="#F2EFE9"/><rect x="84" y="70" width="6" height="2" fill="#F2EFE9"/><rect x="90" y="72" width="2" height="2" fill="#F2EFE9"/><rect x="90" y="74" width="2" height="2" fill="#F2EFE9"/><rect x="82" y="76" width="8" height="2" fill="#F2EFE9"/><rect x="96" y="64" width="8" height="2" fill="#F2EFE9"/><rect x="94" y="66" width="2" height="2" fill="#F2EFE9"/><rect x="94" y="68" width="2" height="2" fill="#F2EFE9"/><rect x="94" y="70" width="2" height="2" fill="#F2EFE9"/><rect x="94" y="72" width="2" height="2" fill="#F2EFE9"/><rect x="94" y="74" width="2" height="2" fill="#F2EFE9"/><rect x="96" y="76" width="8" height="2" fill="#F2EFE9"/><rect x="106" y="64" width="8" height="2" fill="#F2EFE9"/><rect x="106" y="66" width="2" height="2" fill="#F2EFE9"/><rect x="114" y="66" width="2" height="2" fill="#F2EFE9"/><rect x="106" y="68" width="2" height="2" fill="#F2EFE9"/><rect x="114" y="68" width="2" height="2" fill="#F2EFE9"/><rect x="106" y="70" width="8" height="2" fill="#F2EFE9"/><rect x="106" y="72" width="2" height="2" fill="#F2EFE9"/><rect x="110" y="72" width="2" height="2" fill="#F2EFE9"/><rect x="106" y="74" width="2" height="2" fill="#F2EFE9"/><rect x="112" y="74" width="2" height="2" fill="#F2EFE9"/><rect x="106" y="76" width="2" height="2" fill="#F2EFE9"/><rect x="114" y="76" width="2" height="2" fill="#F2EFE9"/><rect x="120" y="64" width="6" height="2" fill="#F2EFE9"/><rect x="122" y="66" width="2" height="2" fill="#F2EFE9"/><rect x="122" y="68" width="2" height="2" fill="#F2EFE9"/><rect x="122" y="70" width="2" height="2" fill="#F2EFE9"/><rect x="122" y="72" width="2" height="2" fill="#F2EFE9"/><rect x="122" y="74" width="2" height="2" fill="#F2EFE9"/><rect x="120" y="76" width="6" height="2" fill="#F2EFE9"/><rect x="130" y="64" width="8" height="2" fill="#F2EFE9"/><rect x="130" y="66" width="2" height="2" fill="#F2EFE9"/><rect x="138" y="66" width="2" height="2" fill="#F2EFE9"/><rect x="130" y="68" width="2" height="2" fill="#F2EFE9"/><rect x="138" y="68" width="2" height="2" fill="#F2EFE9"/><rect x="130" y="70" width="8" height="2" fill="#F2EFE9"/><rect x="130" y="72" width="2" height="2" fill="#F2EFE9"/><rect x="130" y="74" width="2" height="2" fill="#F2EFE9"/><rect x="130" y="76" width="2" height="2" fill="#F2EFE9"/><rect x="142" y="64" width="10" height="2" fill="#F2EFE9"/><rect x="146" y="66" width="2" height="2" fill="#F2EFE9"/><rect x="146" y="68" width="2" height="2" fill="#F2EFE9"/><rect x="146" y="70" width="2" height="2" fill="#F2EFE9"/><rect x="146" y="72" width="2" height="2" fill="#F2EFE9"/><rect x="146" y="74" width="2" height="2" fill="#F2EFE9"/><rect x="146" y="76" width="2" height="2" fill="#F2EFE9"/><rect x="156" y="64" width="6" height="2" fill="#F2EFE9"/><rect x="158" y="66" width="2" height="2" fill="#F2EFE9"/><rect x="158" y="68" width="2" height="2" fill="#F2EFE9"/><rect x="158" y="70" width="2" height="2" fill="#F2EFE9"/><rect x="158" y="72" width="2" height="2" fill="#F2EFE9"/><rect x="158" y="74" width="2" height="2" fill="#F2EFE9"/><rect x="156" y="76" width="6" height="2" fill="#F2EFE9"/><rect x="168" y="64" width="6" height="2" fill="#F2EFE9"/><rect x="166" y="66" width="2" height="2" fill="#F2EFE9"/><rect x="174" y="66" width="2" height="2" fill="#F2EFE9"/><rect x="166" y="68" width="2" height="2" fill="#F2EFE9"/><rect x="174" y="68" width="2" height="2" fill="#F2EFE9"/><rect x="166" y="70" width="2" height="2" fill="#F2EFE9"/><rect x="174" y="70" width="2" height="2" fill="#F2EFE9"/><rect x="166" y="72" width="2" height="2" fill="#F2EFE9"/><rect x="174" y="72" width="2" height="2" fill="#F2EFE9"/><rect x="166" y="74" width="2" height="2" fill="#F2EFE9"/><rect x="174" y="74" width="2" height="2" fill="#F2EFE9"/><rect x="168" y="76" width="6" height="2" fill="#F2EFE9"/><rect x="178" y="64" width="2" height="2" fill="#F2EFE9"/><rect x="186" y="64" width="2" height="2" fill="#F2EFE9"/><rect x="178" y="66" width="4" height="2" fill="#F2EFE9"/><rect x="186" y="66" width="2" height="2" fill="#F2EFE9"/><rect x="178" y="68" width="4" height="2" fill="#F2EFE9"/><rect x="186" y="68" width="2" height="2" fill="#F2EFE9"/><rect x="178" y="70" width="2" height="2" fill="#F2EFE9"/><rect x="182" y="70" width="2" height="2" fill="#F2EFE9"/><rect x="186" y="70" width="2" height="2" fill="#F2EFE9"/><rect x="178" y="72" width="2" height="2" fill="#F2EFE9"/><rect x="184" y="72" width="4" height="2" fill="#F2EFE9"/><rect x="178" y="74" width="2" height="2" fill="#F2EFE9"/><rect x="184" y="74" width="4" height="2" fill="#F2EFE9"/><rect x="178" y="76" width="2" height="2" fill="#F2EFE9"/><rect x="186" y="76" width="2" height="2" fill="#F2EFE9"/><rect x="202" y="64" width="2" height="2" fill="#F2EFE9"/><rect x="210" y="64" width="2" height="2" fill="#F2EFE9"/><rect x="204" y="66" width="2" height="2" fill="#F2EFE9"/><rect x="208" y="66" width="2" height="2" fill="#F2EFE9"/><rect x="206" y="68" width="2" height="2" fill="#F2EFE9"/><rect x="206" y="70" width="2" height="2" fill="#F2EFE9"/><rect x="206" y="72" width="2" height="2" fill="#F2EFE9"/><rect x="206" y="74" width="2" height="2" fill="#F2EFE9"/><rect x="206" y="76" width="2" height="2" fill="#F2EFE9"/><rect x="214" y="64" width="10" height="2" fill="#F2EFE9"/><rect x="214" y="66" width="2" height="2" fill="#F2EFE9"/><rect x="214" y="68" width="2" height="2" fill="#F2EFE9"/><rect x="214" y="70" width="8" height="2" fill="#F2EFE9"/><rect x="214" y="72" width="2" height="2" fill="#F2EFE9"/><rect x="214" y="74" width="2" height="2" fill="#F2EFE9"/><rect x="214" y="76" width="10" height="2" fill="#F2EFE9"/><rect x="226" y="64" width="10" height="2" fill="#F2EFE9"/><rect x="230" y="66" width="2" height="2" fill="#F2EFE9"/><rect x="230" y="68" width="2" height="2" fill="#F2EFE9"/><rect x="230" y="70" width="2" height="2" fill="#F2EFE9"/><rect x="230" y="72" width="2" height="2" fill="#F2EFE9"/><rect x="230" y="74" width="2" height="2" fill="#F2EFE9"/><rect x="230" y="76" width="2" height="2" fill="#F2EFE9"/></g>
<rect x="22" y="118" width="12" height="12" fill="#3572A5"/>
<rect x="44" y="116" width="12" height="3" fill="#F2EFE9"/><rect x="44" y="119" width="3" height="3" fill="#F2EFE9"/><rect x="56" y="119" width="3" height="3" fill="#F2EFE9"/><rect x="44" y="122" width="3" height="3" fill="#F2EFE9"/><rect x="56" y="122" width="3" height="3" fill="#F2EFE9"/><rect x="44" y="125" width="12" height="3" fill="#F2EFE9"/><rect x="44" y="128" width="3" height="3" fill="#F2EFE9"/><rect x="44" y="131" width="3" height="3" fill="#F2EFE9"/><rect x="44" y="134" width="3" height="3" fill="#F2EFE9"/><rect x="62" y="116" width="3" height="3" fill="#F2EFE9"/><rect x="74" y="116" width="3" height="3" fill="#F2EFE9"/><rect x="65" y="119" width="3" height="3" fill="#F2EFE9"/><rect x="71" y="119" width="3" height="3" fill="#F2EFE9"/><rect x="68" y="122" width="3" height="3" fill="#F2EFE9"/><rect x="68" y="125" width="3" height="3" fill="#F2EFE9"/><rect x="68" y="128" width="3" height="3" fill="#F2EFE9"/><rect x="68" y="131" width="3" height="3" fill="#F2EFE9"/><rect x="68" y="134" width="3" height="3" fill="#F2EFE9"/><rect x="80" y="116" width="15" height="3" fill="#F2EFE9"/><rect x="86" y="119" width="3" height="3" fill="#F2EFE9"/><rect x="86" y="122" width="3" height="3" fill="#F2EFE9"/><rect x="86" y="125" width="3" height="3" fill="#F2EFE9"/><rect x="86" y="128" width="3" height="3" fill="#F2EFE9"/><rect x="86" y="131" width="3" height="3" fill="#F2EFE9"/><rect x="86" y="134" width="3" height="3" fill="#F2EFE9"/><rect x="98" y="116" width="3" height="3" fill="#F2EFE9"/><rect x="110" y="116" width="3" height="3" fill="#F2EFE9"/><rect x="98" y="119" width="3" height="3" fill="#F2EFE9"/><rect x="110" y="119" width="3" height="3" fill="#F2EFE9"/><rect x="98" y="122" width="3" height="3" fill="#F2EFE9"/><rect x="110" y="122" width="3" height="3" fill="#F2EFE9"/><rect x="98" y="125" width="15" height="3" fill="#F2EFE9"/><rect x="98" y="128" width="3" height="3" fill="#F2EFE9"/><rect x="110" y="128" width="3" height="3" fill="#F2EFE9"/><rect x="98" y="131" width="3" height="3" fill="#F2EFE9"/><rect x="110" y="131" width="3" height="3" fill="#F2EFE9"/><rect x="98" y="134" width="3" height="3" fill="#F2EFE9"/><rect x="110" y="134" width="3" height="3" fill="#F2EFE9"/><rect x="119" y="116" width="9" height="3" fill="#F2EFE9"/><rect x="116" y="119" width="3" height="3" fill="#F2EFE9"/><rect x="128" y="119" width="3" height="3" fill="#F2EFE9"/><rect x="116" y="122" width="3" height="3" fill="#F2EFE9"/><rect x="128" y="122" width="3" height="3" fill="#F2EFE9"/><rect x="116" y="125" width="3" height="3" fill="#F2EFE9"/><rect x="128" y="125" width="3" height="3" fill="#F2EFE9"/><rect x="116" y="128" width="3" height="3" fill="#F2EFE9"/><rect x="128" y="128" width="3" height="3" fill="#F2EFE9"/><rect x="116" y="131" width="3" height="3" fill="#F2EFE9"/><rect x="128" y="131" width="3" height="3" fill="#F2EFE9"/><rect x="119" y="134" width="9" height="3" fill="#F2EFE9"/><rect x="134" y="116" width="3" height="3" fill="#F2EFE9"/><rect x="146" y="116" width="3" height="3" fill="#F2EFE9"/><rect x="134" y="119" width="6" height="3" fill="#F2EFE9"/><rect x="146" y="119" width="3" height="3" fill="#F2EFE9"/><rect x="134" y="122" width="6" height="3" fill="#F2EFE9"/><rect x="146" y="122" width="3" height="3" fill="#F2EFE9"/><rect x="134" y="125" width="3" height="3" fill="#F2EFE9"/><rect x="140" y="125" width="3" height="3" fill="#F2EFE9"/><rect x="146" y="125" width="3" height="3" fill="#F2EFE9"/><rect x="134" y="128" width="3" height="3" fill="#F2EFE9"/><rect x="143" y="128" width="6" height="3" fill="#F2EFE9"/><rect x="134" y="131" width="3" height="3" fill="#F2EFE9"/><rect x="143" y="131" width="6" height="3" fill="#F2EFE9"/><rect x="134" y="134" width="3" height="3" fill="#F2EFE9"/><rect x="146" y="134" width="3" height="3" fill="#F2EFE9"/>
<rect x="171" y="116" width="15" height="3" fill="#F2C230"/><rect x="183" y="119" width="3" height="3" fill="#F2C230"/><rect x="180" y="122" width="3" height="3" fill="#F2C230"/><rect x="177" y="125" width="3" height="3" fill="#F2C230"/><rect x="174" y="128" width="3" height="3" fill="#F2C230"/><rect x="174" y="131" width="3" height="3" fill="#F2C230"/><rect x="174" y="134" width="3" height="3" fill="#F2C230"/><rect x="192" y="131" width="6" height="3" fill="#F2C230"/><rect x="192" y="134" width="6" height="3" fill="#F2C230"/><rect x="210" y="116" width="9" height="3" fill="#F2C230"/><rect x="207" y="119" width="3" height="3" fill="#F2C230"/><rect x="219" y="119" width="3" height="3" fill="#F2C230"/><rect x="207" y="122" width="3" height="3" fill="#F2C230"/><rect x="219" y="122" width="3" height="3" fill="#F2C230"/><rect x="210" y="125" width="12" height="3" fill="#F2C230"/><rect x="219" y="128" width="3" height="3" fill="#F2C230"/><rect x="219" y="131" width="3" height="3" fill="#F2C230"/><rect x="210" y="134" width="9" height="3" fill="#F2C230"/><rect x="225" y="116" width="3" height="3" fill="#F2C230"/><rect x="237" y="116" width="3" height="3" fill="#F2C230"/><rect x="225" y="119" width="3" height="3" fill="#F2C230"/><rect x="234" y="119" width="3" height="3" fill="#F2C230"/><rect x="225" y="122" width="3" height="3" fill="#F2C230"/><rect x="231" y="122" width="3" height="3" fill="#F2C230"/><rect x="225" y="125" width="6" height="3" fill="#F2C230"/><rect x="225" y="128" width="3" height="3" fill="#F2C230"/><rect x="231" y="128" width="3" height="3" fill="#F2C230"/><rect x="225" y="131" width="3" height="3" fill="#F2C230"/><rect x="234" y="131" width="3" height="3" fill="#F2C230"/><rect x="225" y="134" width="3" height="3" fill="#F2C230"/><rect x="237" y="134" width="3" height="3" fill="#F2C230"/><rect x="261" y="116" width="3" height="3" fill="#F2C230"/><rect x="261" y="119" width="3" height="3" fill="#F2C230"/><rect x="261" y="122" width="3" height="3" fill="#F2C230"/><rect x="261" y="125" width="3" height="3" fill="#F2C230"/><rect x="261" y="128" width="3" height="3" fill="#F2C230"/><rect x="261" y="131" width="3" height="3" fill="#F2C230"/><rect x="261" y="134" width="15" height="3" fill="#F2C230"/><rect x="282" y="116" width="9" height="3" fill="#F2C230"/><rect x="285" y="119" width="3" height="3" fill="#F2C230"/><rect x="285" y="122" width="3" height="3" fill="#F2C230"/><rect x="285" y="125" width="3" height="3" fill="#F2C230"/><rect x="285" y="128" width="3" height="3" fill="#F2C230"/><rect x="285" y="131" width="3" height="3" fill="#F2C230"/><rect x="282" y="134" width="9" height="3" fill="#F2C230"/><rect x="297" y="116" width="3" height="3" fill="#F2C230"/><rect x="309" y="116" width="3" height="3" fill="#F2C230"/><rect x="297" y="119" width="6" height="3" fill="#F2C230"/><rect x="309" y="119" width="3" height="3" fill="#F2C230"/><rect x="297" y="122" width="6" height="3" fill="#F2C230"/><rect x="309" y="122" width="3" height="3" fill="#F2C230"/><rect x="297" y="125" width="3" height="3" fill="#F2C230"/><rect x="303" y="125" width="3" height="3" fill="#F2C230"/><rect x="309" y="125" width="3" height="3" fill="#F2C230"/><rect x="297" y="128" width="3" height="3" fill="#F2C230"/><rect x="306" y="128" width="6" height="3" fill="#F2C230"/><rect x="297" y="131" width="3" height="3" fill="#F2C230"/><rect x="306" y="131" width="6" height="3" fill="#F2C230"/><rect x="297" y="134" width="3" height="3" fill="#F2C230"/><rect x="309" y="134" width="3" height="3" fill="#F2C230"/><rect x="315" y="116" width="15" height="3" fill="#F2C230"/><rect x="315" y="119" width="3" height="3" fill="#F2C230"/><rect x="315" y="122" width="3" height="3" fill="#F2C230"/><rect x="315" y="125" width="12" height="3" fill="#F2C230"/><rect x="315" y="128" width="3" height="3" fill="#F2C230"/><rect x="315" y="131" width="3" height="3" fill="#F2C230"/><rect x="315" y="134" width="15" height="3" fill="#F2C230"/><rect x="336" y="116" width="12" height="3" fill="#F2C230"/><rect x="333" y="119" width="3" height="3" fill="#F2C230"/><rect x="333" y="122" width="3" height="3" fill="#F2C230"/><rect x="336" y="125" width="9" height="3" fill="#F2C230"/><rect x="345" y="128" width="3" height="3" fill="#F2C230"/><rect x="345" y="131" width="3" height="3" fill="#F2C230"/><rect x="333" y="134" width="12" height="3" fill="#F2C230"/>
<rect x="373" y="116" width="9" height="3" fill="#7C4DFF"/><rect x="370" y="119" width="3" height="3" fill="#7C4DFF"/><rect x="370" y="122" width="3" height="3" fill="#7C4DFF"/><rect x="370" y="125" width="12" height="3" fill="#7C4DFF"/><rect x="370" y="128" width="3" height="3" fill="#7C4DFF"/><rect x="382" y="128" width="3" height="3" fill="#7C4DFF"/><rect x="370" y="131" width="3" height="3" fill="#7C4DFF"/><rect x="382" y="131" width="3" height="3" fill="#7C4DFF"/><rect x="373" y="134" width="9" height="3" fill="#7C4DFF"/><rect x="409" y="116" width="12" height="3" fill="#7C4DFF"/><rect x="406" y="119" width="3" height="3" fill="#7C4DFF"/><rect x="406" y="122" width="3" height="3" fill="#7C4DFF"/><rect x="406" y="125" width="3" height="3" fill="#7C4DFF"/><rect x="406" y="128" width="3" height="3" fill="#7C4DFF"/><rect x="406" y="131" width="3" height="3" fill="#7C4DFF"/><rect x="409" y="134" width="12" height="3" fill="#7C4DFF"/><rect x="427" y="116" width="9" height="3" fill="#7C4DFF"/><rect x="424" y="119" width="3" height="3" fill="#7C4DFF"/><rect x="436" y="119" width="3" height="3" fill="#7C4DFF"/><rect x="424" y="122" width="3" height="3" fill="#7C4DFF"/><rect x="436" y="122" width="3" height="3" fill="#7C4DFF"/><rect x="424" y="125" width="3" height="3" fill="#7C4DFF"/><rect x="436" y="125" width="3" height="3" fill="#7C4DFF"/><rect x="424" y="128" width="3" height="3" fill="#7C4DFF"/><rect x="436" y="128" width="3" height="3" fill="#7C4DFF"/><rect x="424" y="131" width="3" height="3" fill="#7C4DFF"/><rect x="436" y="131" width="3" height="3" fill="#7C4DFF"/><rect x="427" y="134" width="9" height="3" fill="#7C4DFF"/><rect x="442" y="116" width="3" height="3" fill="#7C4DFF"/><rect x="454" y="116" width="3" height="3" fill="#7C4DFF"/><rect x="442" y="119" width="6" height="3" fill="#7C4DFF"/><rect x="451" y="119" width="6" height="3" fill="#7C4DFF"/><rect x="442" y="122" width="3" height="3" fill="#7C4DFF"/><rect x="448" y="122" width="3" height="3" fill="#7C4DFF"/><rect x="454" y="122" width="3" height="3" fill="#7C4DFF"/><rect x="442" y="125" width="3" height="3" fill="#7C4DFF"/><rect x="448" y="125" width="3" height="3" fill="#7C4DFF"/><rect x="454" y="125" width="3" height="3" fill="#7C4DFF"/><rect x="442" y="128" width="3" height="3" fill="#7C4DFF"/><rect x="454" y="128" width="3" height="3" fill="#7C4DFF"/><rect x="442" y="131" width="3" height="3" fill="#7C4DFF"/><rect x="454" y="131" width="3" height="3" fill="#7C4DFF"/><rect x="442" y="134" width="3" height="3" fill="#7C4DFF"/><rect x="454" y="134" width="3" height="3" fill="#7C4DFF"/><rect x="460" y="116" width="3" height="3" fill="#7C4DFF"/><rect x="472" y="116" width="3" height="3" fill="#7C4DFF"/><rect x="460" y="119" width="6" height="3" fill="#7C4DFF"/><rect x="469" y="119" width="6" height="3" fill="#7C4DFF"/><rect x="460" y="122" width="3" height="3" fill="#7C4DFF"/><rect x="466" y="122" width="3" height="3" fill="#7C4DFF"/><rect x="472" y="122" width="3" height="3" fill="#7C4DFF"/><rect x="460" y="125" width="3" height="3" fill="#7C4DFF"/><rect x="466" y="125" width="3" height="3" fill="#7C4DFF"/><rect x="472" y="125" width="3" height="3" fill="#7C4DFF"/><rect x="460" y="128" width="3" height="3" fill="#7C4DFF"/><rect x="472" y="128" width="3" height="3" fill="#7C4DFF"/><rect x="460" y="131" width="3" height="3" fill="#7C4DFF"/><rect x="472" y="131" width="3" height="3" fill="#7C4DFF"/><rect x="460" y="134" width="3" height="3" fill="#7C4DFF"/><rect x="472" y="134" width="3" height="3" fill="#7C4DFF"/><rect x="481" y="116" width="9" height="3" fill="#7C4DFF"/><rect x="484" y="119" width="3" height="3" fill="#7C4DFF"/><rect x="484" y="122" width="3" height="3" fill="#7C4DFF"/><rect x="484" y="125" width="3" height="3" fill="#7C4DFF"/><rect x="484" y="128" width="3" height="3" fill="#7C4DFF"/><rect x="484" y="131" width="3" height="3" fill="#7C4DFF"/><rect x="481" y="134" width="9" height="3" fill="#7C4DFF"/><rect x="496" y="116" width="15" height="3" fill="#7C4DFF"/><rect x="502" y="119" width="3" height="3" fill="#7C4DFF"/><rect x="502" y="122" width="3" height="3" fill="#7C4DFF"/><rect x="502" y="125" width="3" height="3" fill="#7C4DFF"/><rect x="502" y="128" width="3" height="3" fill="#7C4DFF"/><rect x="502" y="131" width="3" height="3" fill="#7C4DFF"/><rect x="502" y="134" width="3" height="3" fill="#7C4DFF"/><rect x="517" y="116" width="12" height="3" fill="#7C4DFF"/><rect x="514" y="119" width="3" height="3" fill="#7C4DFF"/><rect x="514" y="122" width="3" height="3" fill="#7C4DFF"/><rect x="517" y="125" width="9" height="3" fill="#7C4DFF"/><rect x="526" y="128" width="3" height="3" fill="#7C4DFF"/><rect x="526" y="131" width="3" height="3" fill="#7C4DFF"/><rect x="514" y="134" width="12" height="3" fill="#7C4DFF"/>
</svg>