<svg xmlns="http://www.w3.org/2000/svg" viewBox="0 0 580 150" width="580" height="150">
<rect width="580" height="150" fill="#0F0F11"/>
<g opacity="0.10">
<rect x="0" y="0" width="580" height="2" fill="#000000"/>
<rect x="0" y="8" width="580" height="2" fill="#000000"/>
<rect x="0" y="16" width="580" height="2" fill="#000000"/>
<rect x="0" y="24" width="580" height="2" fill="#000000"/>
<rect x="0" y="32" width="580" height="2" fill="#000000"/>
<rect x="0" y="40" width="580" height="2" fill="#000000"/>
<rect x="0" y="48" width="580" height="2" fill="#000000"/>
<rect x="0" y="56" width="580" height="2" fill="#000000"/>
<rect x="0" y="64" width="580" height="2" fill="#000000"/>
<rect x="0" y="72" width="580" height="2" fill="#000000"/>
<rect x="0" y="80" width="580" height="2" fill="#000000"/>
<rect x="0" y="88" width="580" height="2" fill="#000000"/>
<rect x="0" y="96" width="580" height="2" fill="#000000"/>
<rect x="0" y="104" width="580" height="2" fill="#000000"/>
<rect x="0" y="112" width="580" height="2" fill="#000000"/>
<rect x="0" y="120" width="580" height="2" fill="#000000"/>
<rect x="0" y="128" width="580" height="2" fill="#000000"/>
<rect x="0" y="136" width="580" height="2" fill="#000000"/>
<rect x="0" y="144" width="580" height="2" fill="#000000"/>
</g>
<rect x="1" y="1" width="578" height="148" fill="none" stroke="#2B2B30" stroke-width="2"/>
<rect x="6" y="6" width="14" height="3" fill="#E8502F"/>
<rect x="6" y="6" width="3" height="14" fill="#E8502F"/>
<rect x="560" y="6" width="14" height="3" fill="#E8502F"/>
<rect x="571" y="6" width="3" height="14" fill="#E8502F"/>
<rect x="6" y="141" width="14" height="3" fill="#E8502F"/>
<rect x="6" y="130" width="3" height="14" fill="#E8502F"/>
<rect x="560" y="141" width="14" height="3" fill="#E8502F"/>
<rect x="571" y="130" width="3" height="14" fill="#E8502F"/>
<rect x="22" y="20" width="16" height="4" fill="#F2EFE9"/><rect x="22" y="24" width="4" height="4" fill="#F2EFE9"/><rect x="38" y="24" width="4" height="4" fill="#F2EFE9"/><rect x="22" y="28" width="4" height="4" fill="#F2EFE9"/><rect x="38" y="28" width="4" height="4" fill="#F2EFE9"/><rect x="22" y="32" width="16" height="4" fill="#F2EFE9"/><rect x="22" y="36" width="4" height="4" fill="#F2EFE9"/><rect x="30" y="36" width="4" height="4" fill="#F2EFE9"/><rect x="22" y="40" width="4" height="4" fill="#F2EFE9"/><rect x="34" y="40" width="4" height="4" fill="#F2EFE9"/><rect x="22" y="44" width="4" height="4" fill="#F2EFE9"/><rect x="38" y="44" width="4" height="4" fill="#F2EFE9"/><rect x="46" y="20" width="20" height="4" fill="#F2EFE9"/><rect x="46" y="24" width="4" height="4" fill="#F2EFE9"/><rect x="46" y="28" width="4" height="4" fill="#F2EFE9"/><rect x="46" y="32" width="16" height="4" fill="#F2EFE9"/><rect x="46" y="36" width="4" height="4" fill="#F2EFE9"/><rect x="46" y="40" width="4" height="4" fill="#F2EFE9"/><rect x="46" y="44" width="20" height="4" fill="#F2EFE9"/><rect x="70" y="20" width="20" height="4" fill="#F2EFE9"/><rect x="78" y="24" width="4" height="4" fill="#F2EFE9"/><rect x="78" y="28" width="4" height="4" fill="#F2EFE9"/><rect x="78" y="32" width="4" height="4" fill="#F2EFE9"/><rect x="78" y="36" width="4" height="4" fill="#F2EFE9"/><rect x="78" y="40" width="4" height="4" fill="#F2EFE9"/><rect x="78" y="44" width="4" height="4" fill="#F2EFE9"/><rect x="94" y="20" width="16" height="4" fill="#F2EFE9"/><rect x="94" y="24" width="4" height="4" fill="#F2EFE9"/><rect x="110" y="24" width="4" height="4" fill="#F2EFE9"/><rect x="94" y="28" width="4" height="4" fill="#F2EFE9"/><rect x="110" y="28" width="4" height="4" fill="#F2EFE9"/><rect x="94" y="32" width="16" height="4" fill="#F2EFE9"/><rect x="94" y="36" width="4" height="4" fill="#F2EFE9"/><rect x="102" y="36" width="4" height="4" fill="#F2EFE9"/><rect x="94" y="40" width="4" height="4" fill="#F2EFE9"/><rect x="106" y="40" width="4" height="4" fill="#F2EFE9"/><rect x="94" y="44" width="4" height="4" fill="#F2EFE9"/><rect x="110" y="44" width="4" height="4" fill="#F2EFE9"/><rect x="122" y="20" width="12" height="4" fill="#F2EFE9"/><rect x="118" y="24" width="4" height="4" fill="#F2EFE9"/><rect x="134" y="24" width="4" height="4" fill="#F2EFE9"/><rect x="118" y="28" width="4" height="4" fill="#F2EFE9"/><rect x="134" y="28" width="4" height="4" fill="#F2EFE9"/><rect x="118" y="32" width="4" height="4" fill="#F2EFE9"/><rect x="134" y="32" width="4" height="4" fill="#F2EFE9"/><rect x="118" y="36" width="4" height="4" fill="#F2EFE9"/><rect x="134" y="36" width="4" height="4" fill="#F2EFE9"/><rect x="118" y="40" width="4" height="4" fill="#F2EFE9"/><rect x="134" y="40" width="4" height="4" fill="#F2EFE9"/><rect x="122" y="44" width="12" height="4" fill="#F2EFE9"/><rect x="142" y="20" width="16" height="4" fill="#F2EFE9"/><rect x="142" y="24" width="4" height="4" fill="#F2EFE9"/><rect x="158" y="24" width="4" height="4" fill="#F2EFE9"/><rect x="142" y="28" width="4" height="4" fill="#F2EFE9"/><rect x="158" y="28" width="4" height="4" fill="#F2EFE9"/><rect x="142" y="32" width="16" height="4" fill="#F2EFE9"/><rect x="142" y="36" width="4" height="4" fill="#F2EFE9"/><rect x="158" y="36" width="4" height="4" fill="#F2EFE9"/><rect x="142" y="40" width="4" height="4" fill="#F2EFE9"/><rect x="158" y="40" width="4" height="4" fill="#F2EFE9"/><rect x="142" y="44" width="16" height="4" fill="#F2EFE9"/><rect x="166" y="20" width="4" height="4" fill="#F2EFE9"/><rect x="182" y="20" width="4" height="4" fill="#F2EFE9"/><rect x="166" y="24" width="4" height="4" fill="#F2EFE9"/><rect x="182" y="24" width="4" height="4" fill="#F2EFE9"/><rect x="166" y="28" width="4" height="4" fill="#F2EFE9"/><rect x="182" y="28" width="4" height="4" fill="#F2EFE9"/><rect x="166" y="32" width="4" height="4" fill="#F2EFE9"/><rect x="182" y="32" width="4" height="4" fill="#F2EFE9"/><rect x="166" y="36" width="4" height="4" fill="#F2EFE9"/><rect x="182" y="36" width="4" height="4" fill="#F2EFE9"/><rect x="166" y="40" width="4" height="4" fill="#F2EFE9"/><rect x="182" y="40" width="4" height="4" fill="#F2EFE9"/><rect x="170" y="44" width="12" height="4" fill="#F2EFE9"/><rect x="194" y="20" width="12" height="4" fill="#F2EFE9"/><rect x="198" y="24" width="4" height="4" fill="#F2EFE9"/><rect x="198" y="28" width="4" height="4" fill="#F2EFE9"/><rect x="198" y="32" width="4" height="4" fill="#F2EFE9"/><rect x="198" y="36" width="4" height="4" fill="#F2EFE9"/><rect x="198" y="40" width="4" height="4" fill="#F2EFE9"/><rect x="194" y="44" width="12" height="4" fill="#F2EFE9"/><rect x="214" y="20" width="4" height="4" fill="#F2EFE9"/><rect x="214" y="24" width="4" height="4" fill="#F2EFE9"/><rect x="214" y="28" width="4" height="4" fill="#F2EFE9"/><rect x="214" y="32" width="4" height="4" fill="#F2EFE9"/><rect x="214" y="36" width="4" height="4" fill="#F2EFE9"/><rect x="214" y="40" width="4" height="4" fill="#F2EFE9"/><rect x="214" y="44" width="20" height="4" fill="#F2EFE9"/><rect x="238" y="20" width="16" height="4" fill="#F2EFE9"/><rect x="238" y="24" width="4" height="4" fill="#F2EFE9"/><rect x="254" y="24" width="4" height="4" fill="#F2EFE9"/><rect x="238" y="28" width="4" height="4" fill="#F2EFE9"/><rect x="254" y="28" width="4" height="4" fill="#F2EFE9"/><rect x="238" y="32" width="4" height="4" fill="#F2EFE9"/><rect x="254" y="32" width="4" height="4" fill="#F2EFE9"/><rect x="238" y="36" width="4" height="4" fill="#F2EFE9"/><rect x="254" y="36" width="4" height="4" fill="#F2EFE9"/><rect x="238" y="40" width="4" height="4" fill="#F2EFE9"/><rect x="254" y="40" width="4" height="4" fill="#F2EFE9"/><rect x="238" y="44" width="16" height="4" fill="#F2EFE9"/><rect x="262" y="20" width="20" height="4" fill="#F2EFE9"/><rect x="262" y="24" width="4" height="4" fill="#F2EFE9"/><rect x="262" y="28" width="4" height="4" fill="#F2EFE9"/><rect x="262" y="32" width="16" height="4" fill="#F2EFE9"/><rect x="262" y="36" width="4" height="4" fill="#F2EFE9"/><rect x="262" y="40" width="4" height="4" fill="#F2EFE9"/><rect x="262" y="44" width="20" height="4" fill="#F2EFE9"/><rect x="286" y="20" width="16" height="4" fill="#F2EFE9"/><rect x="286" y="24" width="4" height="4" fill="#F2EFE9"/><rect x="302" y="24" width="4" height="4" fill="#F2EFE9"/><rect x="286" y="28" width="4" height="4" fill="#F2EFE9"/><rect x="302" y="28" width="4" height="4" fill="#F2EFE9"/><rect x="286" y="32" width="16" height="4" fill="#F2EFE9"/><rect x="286" y="36" width="4" height="4" fill="#F2EFE9"/><rect x="294" y="36" width="4" height="4" fill="#F2EFE9"/><rect x="286" y="40" width="4" height="4" fill="#F2EFE9"/><rect x="298" y="40" width="4" height="4" fill="#F2EFE9"/><rect x="286" y="44" width="4" height="4" fill="#F2EFE9"/><rect x="302" y="44" width="4" height="4" fill="#F2EFE9"/>
<rect x="433" y="22" width="15" height="3" fill="#F2C230"/><rect x="439" y="25" width="3" height="3" fill="#F2C230"/><rect x="439" y="28" width="3" height="3" fill="#F2C230"/><rect x="439" y="31" width="3" height="3" fill="#F2C230"/><rect x="439" y="34" width="3" height="3" fill="#F2C230"/><rect x="439" y="37" width="3" height="3" fill="#F2C230"/><rect x="439" y="40" width="3" height="3" fill="#F2C230"/><rect x="454" y="22" width="9" height="3" fill="#F2C230"/><rect x="451" y="25" width="3" height="3" fill="#F2C230"/><rect x="463" y="25" width="3" height="3" fill="#F2C230"/><rect x="451" y="28" width="3" height="3" fill="#F2C230"/><rect x="463" y="28" width="3" height="3" fill="#F2C230"/><rect x="451" y="31" width="3" height="3" fill="#F2C230"/><rect x="463" y="31" width="3" height="3" fill="#F2C230"/><rect x="451" y="34" width="3" height="3" fill="#F2C230"/><rect x="463" y="34" width="3" height="3" fill="#F2C230"/><rect x="451" y="37" width="3" height="3" fill="#F2C230"/><rect x="463" y="37" width="3" height="3" fill="#F2C230"/><rect x="454" y="40" width="9" height="3" fill="#F2C230"/><rect x="469" y="22" width="12" height="3" fill="#F2C230"/><rect x="469" y="25" width="3" height="3" fill="#F2C230"/><rect x="481" y="25" width="3" height="3" fill="#F2C230"/><rect x="469" y="28" width="3" height="3" fill="#F2C230"/><rect x="481" y="28" width="3" height="3" fill="#F2C230"/><rect x="469" y="31" width="3" height="3" fill="#F2C230"/><rect x="481" y="31" width="3" height="3" fill="#F2C230"/><rect x="469" y="34" width="3" height="3" fill="#F2C230"/><rect x="481" y="34" width="3" height="3" fill="#F2C230"/><rect x="469" y="37" width="3" height="3" fill="#F2C230"/><rect x="481" y="37" width="3" height="3" fill="#F2C230"/><rect x="469" y="40" width="12" height="3" fill="#F2C230"/><rect x="490" y="22" width="9" height="3" fill="#F2C230"/><rect x="487" y="25" width="3" height="3" fill="#F2C230"/><rect x="499" y="25" width="3" height="3" fill="#F2C230"/><rect x="487" y="28" width="3" height="3" fill="#F2C230"/><rect x="499" y="28" width="3" height="3" fill="#F2C230"/><rect x="487" y="31" width="15" height="3" fill="#F2C230"/><rect x="487" y="34" width="3" height="3" fill="#F2C230"/><rect x="499" y="34" width="3" height="3" fill="#F2C230"/><rect x="487" y="37" width="3" height="3" fill="#F2C230"/><rect x="499" y="37" width="3" height="3" fill="#F2C230"/><rect x="487" y="40" width="3" height="3" fill="#F2C230"/><rect x="499" y="40" width="3" height="3" fill="#F2C230"/><rect x="505" y="22" width="3" height="3" fill="#F2C230"/><rect x="517" y="22" width="3" height="3" fill="#F2C230"/><rect x="508" y="25" width="3" height="3" fill="#F2C230"/><rect x="514" y="25" width="3" height="3" fill="#F2C230"/><rect x="511" y="28" width="3" height="3" fill="#F2C230"/><rect x="511" y="31" width="3" height="3" fill="#F2C230"/><rect x="511" y="34" width="3" height="3" fill="#F2C230"/><rect x="511" y="37" width="3" height="3" fill="#F2C230"/><rect x="511" y="40" width="3" height="3" fill="#F2C230"/>
<g><rect x="543" y="10" width="3" height="3" fill="#E8502F"/><rect x="543" y="13" width="3" height="3" fill="#E8502F"/><rect x="546" y="13" width="3" height="3" fill="#E8502F"/><rect x="540" y="16" width="3" height="3" fill="#E8502F"/><rect x="543" y="16" width="3" height="3" fill="#E8502F"/><rect x="546" y="16" width="3" height="3" fill="#F2C230"/><rect x="537" y="19" width="3" height="3" fill="#E8502F"/><rect x="540" y="19" width="3" height="3" fill="#E8502F"/><rect x="543" y="19" width="3" height="3" fill="#F2C230"/><rect x="546" y="19" width="3" height="3" fill="#F2C230"/><rect x="537" y="22" width="3" height="3" fill="#E8502F"/><rect x="540" y="22" width="3" height="3" fill="#F2C230"/><rect x="543" y="22" width="3" height="3" fill="#F2C230"/><rect x="546" y="22" width="3" height="3" fill="#F2C230"/><rect x="549" y="22" width="3" height="3" fill="#E8502F"/><rect x="534" y="25" width="3" height="3" fill="#E8502F"/><rect x="537" y="25" width="3" height="3" fill="#E8502F"/><rect x="540" y="25" width="3" height="3" fill="#F2C230"/><rect x="543" y="25" width="3" height="3" fill="#F2C230"/><rect x="546" y="25" width="3" height="3" fill="#F2C230"/><rect x="549" y="25" width="3" height="3" fill="#E8502F"/><rect x="534" y="28" width="3" height="3" fill="#E8502F"/><rect x="537" y="28" width="3" height="3" fill="#F2C230"/><rect x="540" y="28" width="3" height="3" fill="#F2C230"/><rect x="543" y="28" width="3" height="3" fill="#F2C230"/><rect x="546" y="28" width="3" height="3" fill="#F2C230"/><rect x="549" y="28" width="3" height="3" fill="#E8502F"/><rect x="537" y="31" width="3" height="3" fill="#E8502F"/><rect x="540" y="31" width="3" height="3" fill="#E8502F"/><rect x="543" y="31" width="3" height="3" fill="#E8502F"/><rect x="546" y="31" width="3" height="3" fill="#E8502F"/><animate attributeName="opacity" values="1;0" keyTimes="0;0.5" dur="0.7s" calcMode="discrete" repeatCount="indefinite"/></g><g opacity="0"><rect x="540" y="10" width="3" height="3" fill="#E8502F"/><rect x="540" y="13" width="3" height="3" fill="#E8502F"/><rect x="543" y="13" width="3" height="3" fill="#E8502F"/><rect x="540" y="16" width="3" height="3" fill="#E8502F"/><rect x="543" y="16" width="3" height="3" fill="#F2C230"/><rect x="546" y="16" width="3" height="3" fill="#E8502F"/><rect x="537" y="19" width="3" height="3" fill="#E8502F"/><rect x="540" y="19" width="3" height="3" fill="#F2C230"/><rect x="543" y="19" width="3" height="3" fill="#F2C230"/><rect x="546" y="19" width="3" height="3" fill="#E8502F"/><rect x="537" y="22" width="3" height="3" fill="#E8502F"/><rect x="540" y="22" width="3" height="3" fill="#F2C230"/><rect x="543" y="22" width="3" height="3" fill="#F2C230"/><rect x="546" y="22" width="3" height="3" fill="#F2C230"/><rect x="549" y="22" width="3" height="3" fill="#E8502F"/><rect x="534" y="25" width="3" height="3" fill="#E8502F"/><rect x="537" y="25" width="3" height="3" fill="#F2C230"/><rect x="540" y="25" width="3" height="3" fill="#F2C230"/><rect x="543" y="25" width="3" height="3" fill="#F2C230"/><rect x="546" y="25" width="3" height="3" fill="#F2C230"/><rect x="549" y="25" width="3" height="3" fill="#E8502F"/><rect x="534" y="28" width="3" height="3" fill="#E8502F"/><rect x="537" y="28" width="3" height="3" fill="#F2C230"/><rect x="540" y="28" width="3" height="3" fill="#F2C230"/><rect x="543" y="28" width="3" height="3" fill="#F2C230"/><rect x="546" y="28" width="3" height="3" fill="#F2C230"/><rect x="549" y="28" width="3" height="3" fill="#E8502F"/><rect x="537" y="31" width="3" height="3" fill="#E8502F"/><rect x="540" y="31" width="3" height="3" fill="#E8502F"/><rect x="543" y="31" width="3" height="3" fill="#E8502F"/><rect x="546" y="31" width="3" height="3" fill="#E8502F"/><animate attributeName="opacity" values="0;1" keyTimes="0;0.5" dur="0.7s" calcMode="discrete" repeatCount="indefinite"/></g>
<g opacity="0.72"><rect x="22" y="64" width="8" height="2" fill="#F2EFE9"/><rect x="22" y="66" width="2" height="2" fill="#F2EFE9"/><rect x="30" y="66" width="2" height="2" fill="#F2EFE9"/><rect x="22" y="68" width="2" height="2" fill="#F2EFE9"/><rect x="30" y="68" width="2" height="2" fill="#F2EFE9"/><rect x="22" y="70" width="8" height="2" fill="#F2EFE9"/><rect x="22" y="72" width="2" height="2" fill="#F2EFE9"/><rect x="26" y="72" width="2" height="2" fill="#F2EFE9"/><rect x="22" y="74" width="2" height="2" fill="#F2EFE9"/><rect x="28" y="74" width="2" height="2" fill="#F2EFE9"/><rect x="22" y="76" width="2" height="2" fill="#F2EFE9"/><rect x="30" y="76" width="2" height="2" fill="#F2EFE9"/><rect x="34" y="64" width="10" height="2" fill="#F2EFE9"/><rect x="34" y="66" width="2" height="2" fill="#F2EFE9"/><rect x="34" y="68" width="2" height="2" fill="#F2EFE9"/><rect x="34" y="70" width="8" height="2" fill="#F2EFE9"/><rect x="34" y="72" width="2" height="2" fill="#F2EFE9"/><rect x="34" y="74" width="2" height="2" fill="#F2EFE9"/><rect x="34" y="76" width="10" height="2" fill="#F2EFE9"/><rect x="46" y="64" width="10" height="2" fill="#F2EFE9"/><rect x="50" y="66" width="2" height="2" fill="#F2EFE9"/><rect x="50" y="68" width="2" height="2" fill="#F2EFE9"/><rect x="50" y="70" width="2" height="2" fill="#F2EFE9"/><rect x="50" y="72" width="2" height="2" fill="#F2EFE9"/><rect x="50" y="74" width="2" height="2" fill="#F2EFE9"/><rect x="50" y="76" width="2" height="2" fill="#F2EFE9"/><rect x="58" y="64" width="8" height="2" fill="#F2EFE9"/><rect x="58" y="66" width="2" height="2" fill="#F2EFE9"/><rect x="66" y="66" width="2" height="2" fill="#F2EFE9"/><rect x="58" y="68" width="2" height="2" fill="#F2EFE9"/><rect x="66" y="68" width="2" height="2" fill="#F2EFE9"/><rect x="58" y="70" width="8" height="2" fill="#F2EFE9"/><rect x="58" y="72" width="2" height="2" fill="#F2EFE9"/><rect x="62" y="72" width="2" height="2" fill="#F2EFE9"/><rect x="58" y="74" width="2" height="2" fill="#F2EFE9"/><rect x="64" y="74" width="2" height="2" fill="#F2EFE9"/><rect x="58" y="76" width="2" height="2" fill="#F2EFE9"/><rect x="66" y="76" width="2" height="2" fill="#F2EFE9"/><rect x="72" y="64" width="6" height="2" fill="#F2EFE9"/><rect x="70" y="66" width="2" height="2" fill="#F2EFE9"/><rect x="78" y="66" width="2" height="2" fill="#F2EFE9"/><rect x="70" y="68" width="2" height="2" fill="#F2EFE9"/><rect x="78" y="68" width="2" height="2" fill="#F2EFE9"/><rect x="70" y="70" width="2" height="2" fill="#F2EFE9"/><rect x="78" y="70" width="2" height="2" fill="#F2EFE9"/><rect x="70" y="72" width="2" height="2" fill="#F2EFE9"/><rect x="78" y="72" width="2" height="2" fill="#F2EFE9"/><rect x="70" y="74" width="2" height="2" fill="#F2EFE9"/><rect x="78" y="74" width="2" height="2" fill="#F2EFE9"/><rect x="72" y="76" width="6" height="2" fill="#F2EFE9"/><rect x="82" y="64" width="8" height="2" fill="#F2EFE9"/><rect x="82" y="66" width="2" height="2" fill="#F2EFE9"/><rect x="90" y="66" width="2" height="2" fill="#F2EFE9"/><rect x="82" y="68" width="2" height="2" fill="#F2EFE9"/><rect x="90" y="68" width="2" height="2" fill="#F2EFE9"/><rect x="82" y="70" width="8" height="2" fill="#F2EFE9"/><rect x="82" y="72" width="2" height="2" fill="#F2EFE9"/><rect x="90" y="72" width="2" height="2" fill="#F2EFE9"/><rect x="82" y="74" width="2" height="2" fill="#F2EFE9"/><rect x="90" y="74" width="2" height="2" fill="#F2EFE9"/><rect x="82" y="76" width="8" height="2" fill="#F2EFE9"/><rect x="94" y="64" width="2" height="2" fill="#F2EFE9"/><rect x="102" y="64" width="2" height="2" fill="#F2EFE9"/><rect x="94" y="66" width="2" height="2" fill="#F2EFE9"/><rect x="102" y="66" width="2" height="2" fill="#F2EFE9"/><rect x="94" y="68" width="2" height="2" fill="#F2EFE9"/><rect x="102" y="68" width="2" height="2" fill="#F2EFE9"/><rect x="94" y="70" width="2" height="2" fill="#F2EFE9"/><rect x="102" y="70" width="2" height="2" fill="#F2EFE9"/><rect x="94" y="72" width="2" height="2" fill="#F2EFE9"/><rect x="102" y="72" width="2" height="2" fill="#F2EFE9"/><rect x="94" y="74" width="2" height="2" fill="#F2EFE9"/><rect x="102" y="74" width="2" height="2" fill="#F2EFE9"/><rect x="96" y="76" width="6" height="2" fill="#F2EFE9"/><rect x="108" y="64" width="6" height="2" fill="#F2EFE9"/><rect x="110" y="66" width="2" height="2" fill="#F2EFE9"/><rect x="110" y="68" width="2" height="2" fill="#F2EFE9"/><rect x="110" y="70" width="2" height="2" fill="#F2EFE9"/><rect x="110" y="72" width="2" height="2" fill="#F2EFE9"/><rect x="110" y="74" width="2" height="2" fill="#F2EFE9"/><rect x="108" y="76" width="6" height="2" fill="#F2EFE9"/><rect x="118" y="64" width="2" height="2" fill="#F2EFE9"/><rect x="118" y="66" width="2" height="2" fill="#F2EFE9"/><rect x="118" y="68" width="2" height="2" fill="#F2EFE9"/><rect x="118" y="70" width="2" height="2" fill="#F2EFE9"/><rect x="118" y="72" width="2" height="2" fill="#F2EFE9"/><rect x="118" y="74" width="2" height="2" fill="#F2EFE9"/><rect x="118" y="76" width="10" height="2" fill="#F2EFE9"/><rect x="130" y="64" width="8" height="2" fill="#F2EFE9"/><rect x="130" y="66" width="2" height="2" fill="#F2EFE9"/><rect x="138" y="66" width="2" height="2" fill="#F2EFE9"/><rect x="130" y="68" width="2" height="2" fill="#F2EFE9"/><rect x="138" y="68" width="2" height="2" fill="#F2EFE9"/><rect x="130" y="70" width="2" height="2" fill="#F2EFE9"/><rect x="138" y="70" width="2" height="2" fill="#F2EFE9"/><rect x="130" y="72" width="2" height="2" fill="#F2EFE9"/><rect x="138" y="72" width="2" height="2" fill="#F2EFE9"/><rect x="130" y="74" width="2" height="2" fill="#F2EFE9"/><rect x="138" y="74" width="2" height="2" fill="#F2EFE9"/><rect x="130" y="76" width="8" height="2" fill="#F2EFE9"/><rect x="142" y="64" width="10" height="2" fill="#F2EFE9"/><rect x="142" y="66" width="2" height="2" fill="#F2EFE9"/><rect x="142" y="68" width="2" height="2" fill="#F2EFE9"/><rect x="142" y="70" width="8" height="2" fill="#F2EFE9"/><rect x="142" y="72" width="2" height="2" fill="#F2EFE9"/><rect x="142" y="74" width="2" height="2" fill="#F2EFE9"/><rect x="142" y="76" width="10" height="2" fill="#F2EFE9"/><rect x="154" y="64" width="8" height="2" fill="#F2EFE9"/><rect x="154" y="66" width="2" height="2" fill="#F2EFE9"/><rect x="162" y="66" width="2" height="2" fill="#F2EFE9"/><rect x="154" y="68" width="2" height="2" fill="#F2EFE9"/><rect x="162" y="68" width="2" height="2" fill="#F2EFE9"/><rect x="154" y="70" width="8" height="2" fill="#F2EFE9"/><rect x="154" y="72" width="2" height="2" fill="#F2EFE9"/><rect x="158" y="72" width="2" height="2" fill="#F2EFE9"/><rect x="154" y="74" width="2" height="2" fill="#F2EFE9"/><rect x="160" y="74" width="2" height="2" fill="#F2EFE9"/><rect x="154" y="76" width="2" height="2" fill="#F2EFE9"/><rect x="162" y="76" width="2" height="2" fill="#F2EFE9"/><rect x="180" y="64" width="8" height="2" fill="#F2EFE9"/><rect x="178" y="66" width="2" height="2" fill="#F2EFE9"/><rect x="178" y="68" width="2" height="2" fill="#F2EFE9"/><rect x="180" y="70" width="6" height="2" fill="#F2EFE9"/><rect x="186" y="72" width="2" height="2" fill="#F2EFE9"/><rect x="186" y="74" width="2" height="2" fill="#F2EFE9"/><rect x="178" y="76" width="8" height="2" fill="#F2EFE9"/><rect x="190" y="64" width="2" height="2" fill="#F2EFE9"/><rect x="198" y="64" width="2" height="2" fill="#F2EFE9"/><rect x="192" y="66" width="2" height="2" fill="#F2EFE9"/><rect x="196" y="66" width="2" height="2" fill="#F2EFE9"/><rect x="194" y="68" width="2" height="2" fill="#F2EFE9"/><rect x="194" y="70" width="2" height="2" fill="#F2EFE9"/><rect x="194" y="72" width="2" height="2" fill="#F2EFE9"/><rect x="194" y="74" width="2" height="2" fill="#F2EFE9"/><rect x="194" y="76" width="2" height="2" fill="#F2EFE9"/><rect x="204" y="64" width="8" height="2" fill="#F2EFE9"/><rect x="202" y="66" width="2" height="2" fill="#F2EFE9"/><rect x="202" y="68" width="2" height="2" fill="#F2EFE9"/><rect x="204" y="70" width="6" height="2" fill="#F2EFE9"/><rect x="210" y="72" width="2" height="2" fill="#F2EFE9"/><rect x="210" y="74" width="2" height="2" fill="#F2EFE9"/><rect x="202" y="76" width="8" height="2" fill="#F2EFE9"/><rect x="214" y="64" width="10" height="2" fill="#F2EFE9"/><rect x="218" y="66" width="2" height="2" fill="#F2EFE9"/><rect x="218" y="68" width="2" height="2" fill="#F2EFE9"/><rect x="218" y="70" width="2" height="2" fill="#F2EFE9"/><rect x="218" y="72" width="2" height="2" fill="#F2EFE9"/><rect x="218" y="74" width="2" height="2" fill="#F2EFE9"/><rect x="218" y="76" width="2" height="2" fill="#F2EFE9"/><rect x="226" y="64" width="10" height="2" fill="#F2EFE9"/><rect x="226" y="66" width="2" height="2" fill="#F2EFE9"/><rect x="226" y="68" width="2" height="2" fill="#F2EFE9"/><rect x="226" y="70" width="8" height="2" fill="#F2EFE9"/><rect x="226" y="72" width="2" height="2" fill="#F2EFE9"/><rect x="226" y="74" width="2" height="2" fill="#F2EFE9"/><rect x="226" y="76" width="10" height="2" fill="#F2EFE9"/><rect x="238" y="64" width="2" height="2" fill="#F2EFE9"/><rect x="246" y="64" width="2" height="2" fill="#F2EFE9"/><rect x="238" y="66" width="4" height="2" fill="#F2EFE9"/><rect x="244" y="66" width="4" height="2" fill="#F2EFE9"/><rect x="238" y="68" width="2" height="2" fill="#F2EFE9"/><rect x="242" y="68" width="2" height="2" fill="#F2EFE9"/><rect x="246" y="68" width="2" height="2" fill="#F2EFE9"/><rect x="238" y="70" width="2" height="2" fill="#F2EFE9"/><rect x="242" y="70" width="2" height="2" fill="#F2EFE9"/><rect x="246" y="70" width="2" height="2" fill="#F2EFE9"/><rect x="238" y="72" width="2" height="2" fill="#F2EFE9"/><rect x="246" y="72" width="2" height="2" fill="#F2EFE9"/><rect x="238" y="74" width="2" height="2" fill="#F2EFE9"/><rect x="246" y="74" width="2" height="2" fill="#F2EFE9"/><rect x="238" y="76" width="2" height="2" fill="#F2EFE9"/><rect x="246" y="76" width="2" height="2" fill="#F2EFE9"/></g>
<rect x="22" y="118" width="12" height="12" fill="#3178C6"/>
<rect x="44" y="116" width="15" height="3" fill="#F2EFE9"/><rect x="50" y="119" width="3" height="3" fill="#F2EFE9"/><rect x="50" y="122" width="3" height="3" fill="#F2EFE9"/><rect x="50" y="125" width="3" height="3" fill="#F2EFE9"/><rect x="50" y="128" width="3" height="3" fill="#F2EFE9"/><rect x="50" y="131" width="3" height="3" fill="#F2EFE9"/><rect x="50" y="134" width="3" height="3" fill="#F2EFE9"/><rect x="62" y="116" width="3" height="3" fill="#F2EFE9"/><rect x="74" y="116" width="3" height="3" fill="#F2EFE9"/><rect x="65" y="119" width="3" height="3" fill="#F2EFE9"/><rect x="71" y="119" width="3" height="3" fill="#F2EFE9"/><rect x="68" y="122" width="3" height="3" fill="#F2EFE9"/><rect x="68" y="125" width="3" height="3" fill="#F2EFE9"/><rect x="68" y="128" width="3" height="3" fill="#F2EFE9"/><rect x="68" y="131" width="3" height="3" fill="#F2EFE9"/><rect x="68" y="134" width="3" height="3" fill="#F2EFE9"/><rect x="80" y="116" width="12" height="3" fill="#F2EFE9"/><rect x="80" y="119" width="3" height="3" fill="#F2EFE9"/><rect x="92" y="119" width="3" height="3" fill="#F2EFE9"/><rect x="80" y="122" width="3" height="3" fill="#F2EFE9"/><rect x="92" y="122" width="3" height="3" fill="#F2EFE9"/><rect x="80" y="125" width="12" height="3" fill="#F2EFE9"/><rect x="80" y="128" width="3" height="3" fill="#F2EFE9"/><rect x="80" y="131" width="3" height="3" fill="#F2EFE9"/><rect x="80" y="134" width="3" height="3" fill="#F2EFE9"/><rect x="98" y="116" width="15" height="3" fill="#F2EFE9"/><rect x="98" y="119" width="3" height="3" fill="#F2EFE9"/><rect x="98" y="122" width="3" height="3" fill="#F2EFE9"/><rect x="98" y="125" width="12" height="3" fill="#F2EFE9"/><rect x="98" y="128" width="3" height="3" fill="#F2EFE9"/><rect x="98" y="131" width="3" height="3" fill="#F2EFE9"/><rect x="98" y="134" width="15" height="3" fill="#F2EFE9"/><rect x="119" y="116" width="12" height="3" fill="#F2EFE9"/><rect x="116" y="119" width="3" height="3" fill="#F2EFE9"/><rect x="116" y="122" width="3" height="3" fill="#F2EFE9"/><rect x="119" y="125" width="9" height="3" fill="#F2EFE9"/><rect x="128" y="128" width="3" height="3" fill="#F2EFE9"/><rect x="128" y="131" width="3" height="3" fill="#F2EFE9"/><rect x="116" y="134" width="12" height="3" fill="#F2EFE9"/><rect x="137" y="116" width="12" height="3" fill="#F2EFE9"/><rect x="134" y="119" width="3" height="3" fill="#F2EFE9"/><rect x="134" y="122" width="3" height="3" fill="#F2EFE9"/><rect x="134" y="125" width="3" height="3" fill="#F2EFE9"/><rect x="134" y="128" width="3" height="3" fill="#F2EFE9"/><rect x="134" y="131" width="3" height="3" fill="#F2EFE9"/><rect x="137" y="134" width="12" height="3" fill="#F2EFE9"/><rect x="152" y="116" width="12" height="3" fill="#F2EFE9"/><rect x="152" y="119" width="3" height="3" fill="#F2EFE9"/><rect x="164" y="119" width="3" height="3" fill="#F2EFE9"/><rect x="152" y="122" width="3" height="3" fill="#F2EFE9"/><rect x="164" y="122" width="3" height="3" fill="#F2EFE9"/><rect x="152" y="125" width="12" height="3" fill="#F2EFE9"/><rect x="152" y="128" width="3" height="3" fill="#F2EFE9"/><rect x="158" y="128" width="3" height="3" fill="#F2EFE9"/><rect x="152" y="131" width="3" height="3" fill="#F2EFE9"/><rect x="161" y="131" width="3" height="3" fill="#F2EFE9"/><rect x="152" y="134" width="3" height="3" fill="#F2EFE9"/><rect x="164" y="134" width="3" height="3" fill="#F2EFE9"/><rect x="173" y="116" width="9" height="3" fill="#F2EFE9"/><rect x="176" y="119" width="3" height="3" fill="#F2EFE9"/><rect x="176" y="122" width="3" height="3" fill="#F2EFE9"/><rect x="176" y="125" width="3" height="3" fill="#F2EFE9"/><rect x="176" y="128" width="3" height="3" fill="#F2EFE9"/><rect x="176" y="131" width="3" height="3" fill="#F2EFE9"/><rect x="173" y="134" width="9" height="3" fill="#F2EFE9"/><rect x="188" y="116" width="12" height="3" fill="#F2EFE9"/><rect x="188" y="119" width="3" height="3" fill="#F2EFE9"/><rect x="200" y="119" width="3" height="3" fill="#F2EFE9"/><rect x="188" y="122" width="3" height="3" fill="#F2EFE9"/><rect x="200" y="122" width="3" height="3" fill="#F2EFE9"/><rect x="188" y="125" width="12" height="3" fill="#F2EFE9"/><rect x="188" y="128" width="3" height="3" fill="#F2EFE9"/><rect x="188" y="131" width="3" height="3" fill="#F2EFE9"/><rect x="188" y="134" width="3" height="3" fill="#F2EFE9"/><rect x="206" y="116" width="15" height="3" fill="#F2EFE9"/><rect x="212" y="119" width="3" height="3" fill="#F2EFE9"/><rect x="212" y="122" width="3" height="3" fill="#F2EFE9"/><rect x="212" y="125" width="3" height="3" fill="#F2EFE9"/><rect x="212" y="128" width="3" height="3" fill="#F2EFE9"/><rect x="212" y="131" width="3" height="3" fill="#F2EFE9"/><rect x="212" y="134" width="3" height="3" fill="#F2EFE9"/>
<rect x="243" y="116" width="15" height="3" fill="#F2C230"/><rect x="255" y="119" width="3" height="3" fill="#F2C230"/><rect x="252" y="122" width="3" height="3" fill="#F2C230"/><rect x="249" y="125" width="3" height="3" fill="#F2C230"/><rect x="246" y="128" width="3" height="3" fill="#F2C230"/><rect x="246" y="131" width="3" height="3" fill="#F2C230"/><rect x="246" y="134" width="3" height="3" fill="#F2C230"/><rect x="261" y="116" width="15" height="3" fill="#F2C230"/><rect x="273" y="119" width="3" height="3" fill="#F2C230"/><rect x="270" y="122" width="3" height="3" fill="#F2C230"/><rect x="267" y="125" width="3" height="3" fill="#F2C230"/><rect x="264" y="128" width="3" height="3" fill="#F2C230"/><rect x="264" y="131" width="3" height="3" fill="#F2C230"/><rect x="264" y="134" width="3" height="3" fill="#F2C230"/><rect x="282" y="131" width="6" height="3" fill="#F2C230"/><rect x="282" y="134" width="6" height="3" fill="#F2C230"/><rect x="297" y="116" width="15" height="3" fill="#F2C230"/><rect x="297" y="119" width="3" height="3" fill="#F2C230"/><rect x="297" y="122" width="3" height="3" fill="#F2C230"/><rect x="297" y="125" width="12" height="3" fill="#F2C230"/><rect x="309" y="128" width="3" height="3" fill="#F2C230"/><rect x="309" y="131" width="3" height="3" fill="#F2C230"/><rect x="297" y="134" width="12" height="3" fill="#F2C230"/><rect x="315" y="116" width="3" height="3" fill="#F2C230"/><rect x="327" y="116" width="3" height="3" fill="#F2C230"/><rect x="315" y="119" width="3" height="3" fill="#F2C230"/><rect x="324" y="119" width="3" height="3" fill="#F2C230"/><rect x="315" y="122" width="3" height="3" fill="#F2C230"/><rect x="321" y="122" width="3" height="3" fill="#F2C230"/><rect x="315" y="125" width="6" height="3" fill="#F2C230"/><rect x="315" y="128" width="3" height="3" fill="#F2C230"/><rect x="321" y="128" width="3" height="3" fill="#F2C230"/><rect x="315" y="131" width="3" height="3" fill="#F2C230"/><rect x="324" y="131" width="3" height="3" fill="#F2C230"/><rect x="315" y="134" width="3" height="3" fill="#F2C230"/><rect x="327" y="134" width="3" height="3" fill="#F2C230"/><rect x="351" y="116" width="3" height="3" fill="#F2C230"/><rect x="351" y="119" width="3" height="3" fill="#F2C230"/><rect x="351" y="122" width="3" height="3" fill="#F2C230"/><rect x="351" y="125" width="3" height="3" fill="#F2C230"/><rect x="351" y="128" width="3" height="3" fill="#F2C230"/><rect x="351" y="131" width="3" height="3" fill="#F2C230"/><rect x="351" y="134" width="15" height="3" fill="#F2C230"/><rect x="372" y="116" width="9" height="3" fill="#F2C230"/><rect x="375" y="119" width="3" height="3" fill="#F2C230"/><rect x="375" y="122" width="3" height="3" fill="#F2C230"/><rect x="375" y="125" width="3" height="3" fill="#F2C230"/><rect x="375" y="128" width="3" height="3" fill="#F2C230"/><rect x="375" y="131" width="3" height="3" fill="#F2C230"/><rect x="372" y="134" width="9" height="3" fill="#F2C230"/><rect x="387" y="116" width="3" height="3" fill="#F2C230"/><rect x="399" y="116" width="3" height="3" fill="#F2C230"/><rect x="387" y="119" width="6" height="3" fill="#F2C230"/><rect x="399" y="119" width="3" height="3" fill="#F2C230"/><rect x="387" y="122" width="6" height="3" fill="#F2C230"/><rect x="399" y="122" width="3" height="3" fill="#F2C230"/><rect x="387" y="125" width="3" height="3" fill="#F2C230"/><rect x="393" y="125" width="3" height="3" fill="#F2C230"/><rect x="399" y="125" width="3" height="3" fill="#F2C230"/><rect x="387" y="128" width="3" height="3" fill="#F2C230"/><rect x="396" y="128" width="6" height="3" fill="#F2C230"/><rect x="387" y="131" width="3" height="3" fill="#F2C230"/><rect x="396" y="131" width="6" height="3" fill="#F2C230"/><rect x="387" y="134" width="3" height="3" fill="#F2C230"/><rect x="399" y="134" width="3" height="3" fill="#F2C230"/><rect x="405" y="116" width="15" height="3" fill="#F2C230"/><rect x="405" y="119" width="3" height="3" fill="#F2C230"/><rect x="405" y="122" width="3" height="3" fill="#F2C230"/><rect x="405" y="125" width="12" height="3" fill="#F2C230"/><rect x="405" y="128" width="3" height="3" fill="#F2C230"/><rect x="405" y="131" width="3" height="3" fill="#F2C230"/><rect x="405" y="134" width="15" height="3" fill="#F2C230"/><rect x="426" y="116" width="12" height="3" fill="#F2C230"/><rect x="423" y="119" width="3" height="3" fill="#F2C230"/><rect x="423" y="122" width="3" height="3" fill="#F2C230"/><rect x="426" y="125" width="9" height="3" fill="#F2C230"/><rect x="435" y="128" width="3" height="3" fill="#F2C230"/><rect x="435" y="131" width="3" height="3" fill="#F2C230"/><rect x="423" y="134" width="12" height="3" fill="#F2C230"/>
<rect x="460" y="116" width="15" height="3" fill="#7C4DFF"/><rect x="472" y="119" width="3" height="3" fill="#7C4DFF"/><rect x="469" y="122" width="3" height="3" fill="#7C4DFF"/><rect x="466" y="125" width="3" height="3" fill="#7C4DFF"/><rect x="463" y="128" width="3" height="3" fill="#7C4DFF"/><rect x="463" y="131" width="3" height="3" fill="#7C4DFF"/><rect x="463" y="134" width="3" height="3" fill="#7C4DFF"/><rect x="478" y="116" width="12" height="3" fill="#7C4DFF"/><rect x="490" y="119" width="3" height="3" fill="#7C4DFF"/><rect x="490" y="122" width="3" height="3" fill="#7C4DFF"/><rect x="481" y="125" width="9" height="3" fill="#7C4DFF"/><rect x="490" y="128" width="3" height="3" fill="#7C4DFF"/><rect x="490" y="131" width="3" height="3" fill="#7C4DFF"/><rect x="478" y="134" width="12" height="3" fill="#7C4DFF"/><rect x="517" y="116" width="12" height="3" fill="#7C4DFF"/><rect x="514" y="119" width="3" height="3" fill="#7C4DFF"/><rect x="514" y="122" width="3" height="3" fill="#7C4DFF"/><rect x="514" y="125" width="3" height="3" fill="#7C4DFF"/><rect x="514" y="128" width="3" height="3" fill="#7C4DFF"/><rect x="514" y="131" width="3" height="3" fill="#7C4DFF"/><rect x="517" y="134" width="12" height="3" fill="#7C4DFF"/><rect x="535" y="116" width="9" height="3" fill="#7C4DFF"/><rect x="532" y="119" width="3" height="3" fill="#7C4DFF"/><rect x="544" y="119" width="3" height="3" fill="#7C4DFF"/><rect x="532" y="122" width="3" height="3" fill="#7C4DFF"/><rect x="544" y="122" width="3" height="3" fill="#7C4DFF"/><rect x="532" y="125" width="3" height="3" fill="#7C4DFF"/><rect x="544" y="125" width="3" height="3" fill="#7C4DFF"/><rect x="532" y="128" width="3" height="3" fill="#7C4DFF"/><rect x="544" y="128" width="3" height="3" fill="#7C4DFF"/><rect x="532" y="131" width="3" height="3" fill="#7C4DFF"/><rect x="544" y="131" width="3" height="3" fill="#7C4DFF"/><rect x="535" y="134" width="9" height="3" fill="#7C4DFF"/><rect x="550" y="116" width="3" height="3" fill="#7C4DFF"/><rect x="562" y="116" width="3" height="3" fill="#7C4DFF"/><rect x="550" y="119" width="6" height="3" fill="#7C4DFF"/><rect x="559" y="119" width="6" height="3" fill="#7C4DFF"/><rect x="550" y="122" width="3" height="3" fill="#7C4DFF"/><rect x="556" y="122" width="3" height="3" fill="#7C4DFF"/><rect x="562" y="122" width="3" height="3" fill="#7C4DFF"/><rect x="550" y="125" width="3" height="3" fill="#7C4DFF"/><rect x="556" y="125" width="3" height="3" fill="#7C4DFF"/><rect x="562" y="125" width="3" height="3" fill="#7C4DFF"/><rect x="550" y="128" width="3" height="3" fill="#7C4DFF"/><rect x="562" y="128" width="3" height="3" fill="#7C4DFF"/><rect x="550" y="131" width="3" height="3" fill="#7C4DFF"/><rect x="562" y="131" width="3" height="3" fill="#7C4DFF"/><rect x="550" y="134" width="3" height="3" fill="#7C4DFF"/><rect x="562" y="134" width="3" height="3" fill="#7C4DFF"/><rect x="568" y="116" width="3" height="3" fill="#7C4DFF"/><rect x="580" y="116" width="3" height="3" fill="#7C4DFF"/><rect x="568" y="119" width="6" height="3" fill="#7C4DFF"/><rect x="577" y="119" width="6" height="3" fill="#7C4DFF"/><rect x="568" y="122" width="3" height="3" fill="#7C4DFF"/><rect x="574" y="122" width="3" height="3" fill="#7C4DFF"/><rect x="580" y="122" width="3" height="3" fill="#7C4DFF"/><rect x="568" y="125" width="3" height="3" fill="#7C4DFF"/><rect x="574" y="125" width="3" height="3" fill="#7C4DFF"/><rect x="580" y="125" width="3" height="3" fill="#7C4DFF"/><rect x="568" y="128" width="3" height="3" fill="#7C4DFF"/><rect x="580" y="128" width="3" height="3" fill="#7C4DFF"/><rect x="568" y="131" width="3" height="3" fill="#7C4DFF"/><rect x="580" y="131" width="3" height="3" fill="#7C4DFF"/><rect x="568" y="134" width="3" height="3" fill="#7C4DFF"/><rect x="580" y="134" width="3" height="3" fill="#7C4DFF"/><rect x="589" y="116" width="9" height="3" fill="#7C4DFF"/><rect x="592" y="119" width="3" height="3" fill="#7C4DFF"/><rect x="592" y="122" width="3" height="3" fill="#7C4DFF"/><rect x="592" y="125" width="3" height="3" fill="#7C4DFF"/><rect x="592" y="128" width="3" height="3" fill="#7C4DFF"/><rect x="592" y="131" width="3" height="3" fill="#7C4DFF"/><rect x="589" y="134" width="9" height="3" fill="#7C4DFF"/><rect x="604" y="116" width="15" height="3" fill="#7C4DFF"/><rect x="610" y="119" width="3" height="3" fill="#7C4DFF"/><rect x="610" y="122" width="3" height="3" fill="#7C4DFF"/><rect x="610" y="125" width="3" height="3" fill="#7C4DFF"/><rect x="610" y="128" width="3" height="3" fill="#7C4DFF"/><rect x="610" y="131" width="3" height="3" fill="#7C4DFF"/><rect x="610" y="134" width="3" height="3" fill="#7C4DFF"/><rect x="625" y="116" width="12" height="3" fill="#7C4DFF"/><rect x="622" y="119" width="3" height="3" fill="#7C4DFF"/><rect x="622" y="122" width="3" height="3" fill="#7C4DFF"/><rect x="625" y="125" width="9" height="3" fill="#7C4DFF"/><rect x="634" y="128" width="3" height="3" fill="#7C4DFF"/><rect x="634" y="131" width="3" height="3" fill="#7C4DFF"/><rect x="622" y="134" width="12" height="3" fill="#7C4DFF"/>
</svg>