<svg xmlns="http://www.w3.org/2000/svg" viewBox="0 0 18 18" width="18" height="18"><g><rect x="6" y="0" width="2" height="2" fill="#F2C230"/><rect x="8" y="0" width="2" height="2" fill="#F2C230"/><rect x="4" y="2" width="2" height="2" fill="#F2C230"/><rect x="6" y="2" width="2" height="2" fill="#F2C230"/><rect x="2" y="4" width="2" height="2" fill="#F2C230"/><rect x="4" y="4" width="2" height="2" fill="#F2C230"/><rect x="6" y="4" width="2" height="2" fill="#F2C230"/><rect x="8" y="4" width="2" height="2" fill="#F2C230"/><rect x="6" y="6" width="2" height="2" fill="#F2C230"/><rect x="8" y="6" width="2" height="2" fill="#F2C230"/><rect x="4" y="8" width="2" height="2" fill="#F2C230"/><rect x="6" y="8" width="2" height="2" fill="#F2C230"/><rect x="2" y="10" width="2" height="2" fill="#F2C230"/><rect x="4" y="10" width="2" height="2" fill="#F2C230"/><rect x="2" y="12" width="2" height="2" fill="#F2C230"/><animate attributeName="opacity" values="1;0" keyTimes="0;0.5" dur="1.1s" calcMode="discrete" repeatCount="indefinite"/></g><g opacity="0"><rect x="6" y="0" width="2" height="2" fill="#E8502F"/><rect x="8" y="0" width="2" height="2" fill="#E8502F"/><rect x="4" y="2" width="2" height="2" fill="#E8502F"/><rect x="6" y="2" width="2" height="2" fill="#E8502F"/><rect x="2" y="4" width="2" height="2" fill="#E8502F"/><rect x="4" y="4" width="2" height="2" fill="#E8502F"/><rect x="6" y="4" width="2" height="2" fill="#E8502F"/><rect x="8" y="4" width="2" height="2" fill="#E8502F"/><rect x="6" y="6" width="2" height="2" fill="#E8502F"/><rect x="8" y="6" width="2" height="2" fill="#E8502F"/><rect x="4" y="8" width="2" height="2" fill="#E8502F"/><rect x="6" y="8" width="2" height="2" fill="#E8502F"/><rect x="2" y="10" width="2" height="2" fill="#E8502F"/><rect x="4" y="10" width="2" height="2" fill="#E8502F"/><rect x="2" y="12" width="2" height="2" fill="#E8502F"/><animate attributeName="opacity" values="0;1" keyTimes="0;0.5" dur="1.1s" calcMode="discrete" repeatCount="indefinite"/></g></svg>